<?xml version="1.0" standalone="no"?>
<!DOCTYPE svg PUBLIC "-//W3C//DTD SVG 20010904//EN"
 "http://www.w3.org/TR/2001/REC-SVG-20010904/DTD/svg10.dtd">
<svg version="1.0" xmlns="http://www.w3.org/2000/svg"
 width="800.000000pt" height="800.000000pt" viewBox="0 0 800.000000 800.000000"
 preserveAspectRatio="xMidYMid meet">

<g transform="translate(0.000000,800.000000) scale(0.100000,-0.100000)"
fill="#000000" stroke="none">
<path d="M85 7970 c-4 -6 31 -10 101 -10 59 0 105 2 103 4 -11 9 -198 15 -204
6z"/>
<path d="M505 7970 c-18 -7 -19 -8 -2 -15 9 -4 17 -13 17 -21 0 -10 14 -14 50
-14 43 0 50 3 50 19 0 19 8 19 213 15 116 -2 238 -4 270 -4 l57 0 0 -55 0 -55
60 0 c33 0 60 -4 60 -10 0 -5 14 -10 30 -10 17 0 30 5 30 10 0 6 -9 10 -20 10
-11 0 -20 5 -20 10 0 6 23 10 51 10 31 0 48 -4 44 -10 -3 -5 -13 -10 -21 -10
-8 0 -14 -4 -14 -10 0 -5 18 -10 40 -10 22 0 40 5 40 10 0 6 14 10 30 10 28 0
30 2 30 40 0 22 -4 40 -10 40 -5 0 -10 -4 -10 -10 0 -15 -29 -12 -46 4 -22 22
-17 32 19 34 17 1 39 2 47 3 45 6 100 -2 100 -14 0 -7 9 -19 20 -27 12 -8 20
-26 20 -42 0 -21 5 -28 20 -28 17 0 20 7 20 40 0 22 -4 40 -10 40 -5 0 -10 6
-10 14 0 21 47 25 253 22 103 -2 187 1 187 5 0 9 -136 11 -950 13 -308 1 -520
-3 -544 -9 -30 -8 -40 -7 -43 3 -5 14 -28 15 -58 2z"/>
<path d="M2325 7970 c-4 -6 12 -10 42 -9 36 0 43 3 28 9 -28 12 -63 12 -70 0z"/>
<path d="M2576 7971 c-5 -8 79 -11 288 -11 191 0 296 -4 296 -10 0 -5 9 -10
20 -10 11 0 20 5 20 10 0 6 34 10 82 10 45 0 79 2 77 4 -2 3 -178 8 -391 11
-272 5 -388 3 -392 -4z"/>
<path d="M3458 7963 c12 -2 32 -2 45 0 12 2 2 4 -23 4 -25 0 -35 -2 -22 -4z"/>
<path d="M3778 7963 c12 -2 32 -2 45 0 12 2 2 4 -23 4 -25 0 -35 -2 -22 -4z"/>
<path d="M3953 7963 c26 -2 67 -2 90 0 23 2 2 3 -48 3 -49 0 -68 -1 -42 -3z"/>
<path d="M4217 7963 c18 -2 50 -2 70 0 21 2 7 4 -32 4 -38 0 -55 -2 -38 -4z"/>
<path d="M4693 7963 c15 -2 39 -2 55 0 15 2 2 4 -28 4 -30 0 -43 -2 -27 -4z"/>
<path d="M5058 7963 c12 -2 32 -2 45 0 12 2 2 4 -23 4 -25 0 -35 -2 -22 -4z"/>
<path d="M5638 7963 c23 -2 61 -2 85 0 23 2 4 4 -43 4 -47 0 -66 -2 -42 -4z"/>
<path d="M6193 7963 c20 -2 54 -2 75 0 20 2 3 4 -38 4 -41 0 -58 -2 -37 -4z"/>
<path d="M6443 7963 c9 -2 23 -2 30 0 6 3 -1 5 -18 5 -16 0 -22 -2 -12 -5z"/>
<path d="M6513 7963 c9 -2 25 -2 35 0 9 3 1 5 -18 5 -19 0 -27 -2 -17 -5z"/>
<path d="M6908 7963 c6 -2 18 -2 25 0 6 3 1 5 -13 5 -14 0 -19 -2 -12 -5z"/>
<path d="M7298 7963 c12 -2 30 -2 40 0 9 3 -1 5 -23 4 -22 0 -30 -2 -17 -4z"/>
<path d="M7893 7963 c20 -2 54 -2 75 0 20 2 3 4 -38 4 -41 0 -58 -2 -37 -4z"/>
<path d="M7532 6293 c-6 -2 -9 -9 -6 -15 5 -7 -2 -9 -20 -4 -18 4 -25 3 -21
-4 4 -6 -4 -10 -19 -10 -13 0 -26 -3 -28 -8 -1 -4 -25 -15 -53 -25 -73 -25
-15 -14 100 19 55 15 117 28 137 27 33 -1 36 1 23 14 -12 12 -22 13 -47 4 -17
-6 -38 -11 -47 -11 -14 0 -14 2 -1 10 16 10 4 12 -18 3z"/>
<path d="M7406 6207 l-188 -52 6 -195 c3 -107 7 -239 8 -294 l2 -98 43 -19
c37 -16 43 -22 43 -49 0 -33 -2 -35 -31 -20 -15 9 -19 7 -19 -6 0 -10 -5 -14
-15 -10 -9 3 -15 0 -15 -9 0 -8 5 -15 10 -15 6 0 10 -18 10 -40 0 -22 -4 -40
-9 -40 -9 0 -8 -54 3 -410 3 -102 9 -300 12 -440 6 -281 9 -307 30 -289 12 9
14 5 14 -25 0 -30 5 -38 25 -46 32 -12 34 -43 2 -35 -25 7 -23 48 -16 -327 4
-175 4 -177 28 -188 20 -9 26 -7 38 10 8 11 20 20 27 20 7 0 23 23 36 50 13
28 27 50 30 50 10 0 31 -26 29 -36 -1 -5 -1 -21 0 -36 1 -25 3 -26 34 -18 17
4 58 13 90 20 l57 11 0 41 c0 28 4 39 13 35 65 -30 282 -117 288 -117 5 0 9
13 9 28 0 26 -7 30 -157 90 l-158 63 -3 99 c-2 55 -1 100 3 100 3 0 22 -8 43
-19 38 -19 259 -111 267 -111 3 0 5 13 5 29 0 27 -6 31 -107 73 -60 25 -134
55 -165 68 -32 12 -56 26 -53 30 5 8 -4 318 -26 930 -7 173 -12 326 -12 340 0
22 -10 353 -21 655 -2 55 -4 135 -5 178 -1 42 -4 77 -8 76 -5 0 -93 -24 -197
-52z m166 -216 c-16 -13 -15 -13 4 -9 12 3 21 0 21 -6 0 -7 -16 -13 -35 -13
-20 -1 -30 2 -23 7 21 12 -10 19 -39 8 -17 -6 -21 -11 -12 -17 12 -7 -72 -37
-163 -57 -62 -14 -17 5 63 26 99 27 103 38 6 15 -113 -27 -149 -34 -152 -30
-10 10 12 23 55 35 39 11 48 11 51 0 3 -9 10 -6 22 9 13 18 27 23 64 23 29 1
50 6 53 14 3 8 22 12 54 11 43 -2 47 -4 31 -16z m-312 -101 c0 -5 -5 -10 -11
-10 -5 0 -7 5 -4 10 3 6 8 10 11 10 2 0 4 -4 4 -10z m243 -191 c-6 -6 -9 -19
-6 -28 4 -14 3 -14 -6 -1 -16 22 -13 40 6 40 13 0 14 -3 6 -11z m-76 -24 c9
-24 0 -25 -26 -4 -23 19 -23 19 -2 19 12 0 24 -7 28 -15z m35 -20 c-2 -14 -8
-25 -12 -25 -4 0 -5 11 -2 25 2 14 8 25 12 25 4 0 5 -11 2 -25z m-92 -44 c0
-46 2 -50 33 -60 17 -7 32 -10 33 -9 0 2 9 -4 19 -12 17 -14 18 -13 11 10 -17
62 -17 72 1 68 15 -3 18 -16 21 -81 2 -57 7 -79 17 -84 9 -3 15 -18 15 -34 0
-23 7 -32 40 -49 22 -11 40 -25 40 -31 0 -6 6 -7 13 -3 9 5 9 4 0 -6 -18 -19
-110 24 -116 54 -2 12 -5 4 -6 -16 0 -22 4 -38 10 -38 8 0 8 -4 -1 -15 -13
-16 -11 -315 2 -315 5 0 13 11 20 24 17 38 38 41 38 7 0 -16 3 -36 6 -45 3 -9
1 -16 -5 -16 -6 0 -11 12 -11 28 l-1 27 -14 -32 c-7 -17 -11 -41 -8 -52 4 -17
2 -20 -12 -15 -16 6 -17 -1 -10 -97 5 -57 7 -117 6 -132 -1 -20 2 -26 11 -21
10 6 11 4 1 -7 -16 -16 -17 -125 -2 -351 6 -93 9 -171 7 -172 -1 -2 -16 3 -33
11 -21 10 -23 13 -7 9 20 -4 22 0 22 32 0 66 -10 83 -57 103 -54 23 -59 23
-43 4 7 -8 21 -15 32 -15 11 0 18 -5 15 -12 -2 -7 -12 -13 -23 -13 -15 0 -19
-7 -19 -38 0 -20 -1 -37 -1 -37 -1 0 -14 6 -29 14 -16 9 -22 15 -13 18 14 5
22 143 10 163 -4 6 -5 55 -3 109 2 74 -1 101 -11 108 -7 6 -9 11 -3 14 6 2 9
32 8 66 -1 35 -3 128 -4 208 -1 80 -4 149 -7 154 -3 5 -4 49 -3 98 2 61 -1 88
-8 83 -6 -3 -11 1 -11 10 0 9 5 13 10 10 6 -4 10 12 10 40 0 25 -4 44 -8 41
-5 -3 -9 8 -10 24 0 17 4 30 9 30 5 0 9 5 9 11 0 6 -6 9 -13 6 -10 -4 -13 15
-12 78 0 46 4 83 9 82 5 -1 11 4 13 11 3 6 -2 12 -11 12 -12 0 -15 10 -13 45
2 35 6 45 20 45 14 0 17 -9 17 -49z m117 17 c-3 -8 -6 -5 -6 6 -1 11 2 17 5
13 3 -3 4 -12 1 -19z m33 -28 c0 -5 -2 -10 -4 -10 -3 0 -8 5 -11 10 -3 6 -1
10 4 10 6 0 11 -4 11 -10z m17 -32 c-3 -7 -5 -2 -5 12 0 14 2 19 5 13 2 -7 2
-19 0 -25z m-253 -161 c2 -14 0 -29 -5 -32 -5 -4 -9 11 -9 31 0 42 6 42 14 1z
m23 -14 c-3 -10 -5 -4 -5 12 0 17 2 24 5 18 2 -7 2 -21 0 -30z m23 -83 c0 -5
-8 -10 -17 -10 -15 0 -16 2 -3 10 19 12 20 12 20 0z m-53 -25 c0 -8 -4 -15 -9
-15 -4 0 -8 7 -8 15 0 8 4 15 8 15 5 0 9 -7 9 -15z m63 -277 c0 -2 -8 -25 -19
-52 -14 -39 -20 -45 -25 -30 -7 22 -4 40 6 37 3 -1 9 4 12 12 3 10 -1 15 -12
15 -15 0 -15 2 -2 10 14 9 40 14 40 8z m257 -344 c-3 -3 -12 -4 -19 -1 -8 3
-5 6 6 6 11 1 17 -2 13 -5z m-10 -30 c-3 -3 -12 -4 -19 -1 -8 3 -5 6 6 6 11 1
17 -2 13 -5z m-260 -30 c-3 -3 -12 -4 -19 -1 -8 3 -5 6 6 6 11 1 17 -2 13 -5z
m40 -136 c-3 -8 -6 -5 -6 6 -1 11 2 17 5 13 3 -3 4 -12 1 -19z m-2 -128 c3 -5
1 -10 -4 -10 -6 0 -11 5 -11 10 0 6 2 10 4 10 3 0 8 -4 11 -10z m-58 -46 c-3
-3 -12 -4 -19 -1 -8 3 -5 6 6 6 11 1 17 -2 13 -5z m40 -30 c-3 -3 -12 -4 -19
-1 -8 3 -5 6 6 6 11 1 17 -2 13 -5z m13 -21 c-1 -20 -16 -31 -30 -23 -13 8
-12 10 3 10 10 0 15 5 12 10 -3 6 -1 10 4 10 6 0 11 -3 11 -7z m85 -137 c19
-8 35 -22 35 -30 0 -19 -2 -19 -33 -5 -28 13 -67 -2 -67 -26 0 -8 -4 -15 -10
-15 -17 0 -11 25 10 40 23 16 26 36 8 43 -8 3 -6 6 5 6 10 1 33 -6 52 -13z
m-95 -47 c0 -11 -4 -18 -10 -14 -5 3 -7 12 -3 20 7 21 13 19 13 -6z m213 -12
c9 -13 29 -30 46 -37 17 -7 31 -16 31 -20 0 -5 8 -11 18 -13 12 -3 9 -5 -8 -6
-34 -1 -110 29 -110 44 0 8 -8 11 -22 8 -16 -3 -19 -2 -10 5 7 5 12 13 11 18
-6 32 23 33 44 1z m-33 -66 l31 -19 -30 -4 c-16 -2 -29 0 -28 5 1 5 -9 11 -23
13 -22 4 -23 3 -7 -8 15 -11 12 -13 -23 -13 -23 -1 -34 2 -27 7 6 4 8 8 3 8
-6 0 -1 7 10 15 26 20 58 19 94 -4z m-145 -21 c-17 -7 -17 -9 -2 -9 9 -1 17
-5 17 -11 0 -5 9 -10 20 -10 11 0 20 -5 20 -10 0 -6 -16 -3 -37 6 -21 9 -47
19 -57 22 -20 5 -20 5 0 13 10 4 28 8 39 8 l20 0 -20 -9z m275 -40 c8 -5 11
-10 5 -10 -5 0 -17 5 -25 10 -8 5 -10 10 -5 10 6 0 17 -5 25 -10z"/>
<path d="M7370 5525 c0 -9 16 -23 35 -32 35 -17 51 -42 18 -28 -39 16 -53 17
-53 4 0 -8 17 -22 38 -31 36 -17 31 -18 -15 -4 -20 6 -23 4 -23 -18 0 -20 9
-30 40 -46 43 -22 70 -26 70 -10 0 6 -4 10 -10 10 -5 0 -10 19 -10 43 0 31 3
38 10 27 7 -11 9 -4 6 24 -6 45 -1 40 -50 60 -48 20 -56 20 -56 1z"/>
<path d="M7340 5409 c0 -5 5 -7 10 -4 6 3 10 8 10 11 0 2 -4 4 -10 4 -5 0 -10
-5 -10 -11z"/>
<path d="M7372 5336 c1 -21 6 -40 10 -42 5 -3 6 -10 3 -15 -4 -5 2 -9 12 -10
14 0 13 -2 -5 -10 -41 -16 -25 -50 33 -70 52 -18 67 -17 47 3 -13 13 -17 112
-4 104 4 -2 8 4 9 14 2 17 -7 22 -95 57 -9 4 -12 -5 -10 -31z m61 -43 c-7 -2
-19 -2 -25 0 -7 3 -2 5 12 5 14 0 19 -2 13 -5z"/>
<path d="M7374 5144 c3 -26 6 -61 6 -79 0 -26 6 -34 35 -48 45 -21 66 -22 59
-2 -4 8 -2 15 2 15 5 0 7 27 6 60 l-4 60 -45 20 c-64 28 -67 27 -59 -26z"/>
<path d="M7380 4940 c0 -64 3 -82 15 -87 9 -3 23 3 31 13 15 18 15 18 11 -4
-4 -15 1 -25 13 -32 32 -17 35 -12 36 50 1 34 -3 60 -8 60 -6 0 -5 7 2 15 11
13 6 18 -26 31 -22 9 -47 20 -56 25 -16 9 -18 3 -18 -71z"/>
<path d="M7384 4808 c8 -39 15 -47 26 -28 8 12 10 10 10 -7 0 -14 -6 -23 -15
-23 -8 0 -15 -4 -15 -10 0 -19 39 -10 45 10 7 21 25 28 25 10 0 -5 -4 -10 -10
-10 -5 0 -10 -7 -10 -15 0 -14 -11 -19 -37 -16 -7 1 -13 -7 -13 -17 0 -14 13
-26 43 -38 23 -10 45 -20 49 -22 3 -2 6 33 7 76 l1 80 -49 21 c-64 27 -65 27
-57 -11z m76 -18 c0 -5 -2 -10 -4 -10 -3 0 -8 5 -11 10 -3 6 -1 10 4 10 6 0
11 -4 11 -10z m-6 -95 c3 -8 1 -15 -4 -15 -6 0 -10 7 -10 15 0 8 2 15 4 15 2
0 6 -7 10 -15z"/>
<path d="M7390 4644 c0 -11 6 -15 20 -11 11 3 20 2 20 -3 0 -4 -8 -10 -19 -13
-15 -4 -18 -14 -17 -58 1 -51 3 -55 36 -71 57 -28 70 -24 70 20 0 23 -3 32 -9
24 -4 -7 -6 11 -3 41 l4 54 -48 17 c-58 19 -54 19 -54 0z m40 -44 c0 -5 -5
-10 -11 -10 -5 0 -7 5 -4 10 3 6 8 10 11 10 2 0 4 -4 4 -10z"/>
<path d="M7400 4405 l0 -76 46 -19 c60 -26 67 -25 60 8 -3 15 -7 49 -8 75 -1
45 -4 50 -39 68 -21 10 -43 19 -49 19 -6 0 -10 -30 -10 -75z"/>
<path d="M7677 6010 c2 -140 8 -367 13 -505 5 -137 12 -360 16 -495 4 -135 9
-247 11 -250 3 -3 2 130 -2 295 -7 297 -10 502 -14 890 -1 110 -6 204 -11 210
-5 6 -11 33 -13 60 -3 28 -3 -65 0 -205z"/>
<path d="M7260 6197 c-25 -6 -38 -12 -30 -14 8 -2 35 3 60 11 53 16 35 19 -30
3z"/>
<path d="M7712 5965 c0 -16 2 -22 5 -12 2 9 2 23 0 30 -3 6 -5 -1 -5 -18z"/>
<path d="M6060 5951 c0 -5 7 -12 16 -15 8 -3 12 -10 9 -16 -3 -6 1 -7 9 -4 11
4 16 0 16 -10 0 -9 6 -16 13 -16 8 0 24 -11 37 -25 34 -36 43 -31 19 10 -12
19 -26 35 -33 35 -7 0 -23 11 -36 25 -23 25 -50 33 -50 16z"/>
<path d="M5545 5910 c-3 -5 -1 -10 4 -10 6 0 11 5 11 10 0 6 -2 10 -4 10 -3 0
-8 -4 -11 -10z"/>
<path d="M5985 5890 c-7 -12 28 -46 62 -60 14 -6 32 -6 45 0 22 8 22 9 -6 9
-22 1 -27 5 -22 18 6 16 -8 33 -29 33 -5 0 -3 -4 5 -10 8 -5 12 -12 9 -15 -10
-9 -39 6 -39 21 0 16 -16 19 -25 4z"/>
<path d="M5610 5869 c0 -5 5 -7 10 -4 6 3 10 8 10 11 0 2 -4 4 -10 4 -5 0 -10
-5 -10 -11z"/>
<path d="M5515 5850 c-3 -5 -1 -10 4 -10 6 0 11 5 11 10 0 6 -2 10 -4 10 -3 0
-8 -4 -11 -10z"/>
<path d="M5553 5847 c5 -12 -1 -29 -14 -48 -16 -23 -26 -28 -44 -23 -21 5 -24
3 -20 -15 4 -22 -9 -29 -20 -11 -4 7 -14 2 -26 -11 -10 -12 -19 -18 -20 -13
-1 5 -4 -2 -8 -16 -5 -14 -4 -33 1 -42 12 -26 10 -48 -6 -48 -21 0 -46 -40
-45 -70 1 -17 3 -19 6 -7 2 9 9 15 14 12 16 -10 10 -37 -16 -71 -28 -36 -31
-68 -18 -162 l9 -63 -43 -30 c-46 -32 -52 -51 -28 -96 43 -81 55 -127 65 -239
13 -147 31 -218 70 -288 l31 -55 -11 -97 c-6 -54 -12 -98 -13 -99 -1 -1 -21
-7 -44 -15 -59 -18 -70 -34 -89 -124 -22 -106 -72 -203 -137 -262 -160 -147
-269 -255 -333 -331 -68 -79 -209 -269 -261 -352 -21 -33 -30 -37 -115 -57
-127 -29 -391 -90 -518 -119 -58 -13 -204 -46 -325 -74 -121 -28 -353 -80
-515 -116 -320 -72 -443 -100 -505 -115 -22 -6 -112 -26 -200 -45 -88 -20
-250 -57 -360 -82 -232 -52 -222 -50 -430 -96 -88 -20 -230 -52 -315 -72 -85
-20 -175 -40 -200 -45 -25 -5 -83 -18 -130 -29 -47 -11 -128 -29 -180 -41 -52
-12 -131 -29 -175 -39 -44 -10 -108 -25 -143 -32 -42 -9 -61 -17 -58 -26 4
-10 -1 -10 -22 0 -15 6 -31 17 -37 23 -12 14 -112 44 -120 36 -3 -3 -5 -13 -5
-22 0 -17 18 -23 283 -91 l37 -10 0 -55 c0 -51 1 -54 22 -49 13 3 43 9 68 14
25 5 72 16 105 25 72 18 85 19 85 6 0 -5 -3 -9 -8 -9 -4 1 -18 1 -32 0 -18 -1
-21 -4 -11 -10 7 -5 23 -7 35 -5 12 3 7 -2 -12 -11 -18 -9 -38 -13 -43 -9 -5
3 -21 -2 -34 -10 -14 -9 -25 -12 -25 -6 0 5 -5 10 -11 10 -5 0 -7 -5 -3 -12 5
-8 2 -9 -9 -5 -10 3 -17 3 -17 -2 0 -15 -62 -22 -78 -9 -13 10 -14 10 -8 0 9
-16 -16 -16 -32 0 -7 7 -12 8 -12 4 0 -4 9 -15 20 -24 20 -16 18 -17 -47 -18
-37 0 -57 2 -43 6 l25 6 -30 10 c-32 11 -65 8 -65 -6 0 -8 -109 26 -120 37 -3
3 18 3 47 1 31 -3 51 -1 50 5 -1 5 21 18 48 27 42 15 53 26 22 21 -4 -1 -11 7
-14 16 -16 41 -31 47 -91 34 -92 -20 -131 -33 -136 -46 -2 -6 1 -30 7 -53 10
-36 16 -43 43 -48 18 -3 47 -3 66 0 25 5 29 4 16 -4 -9 -5 -31 -12 -50 -14
-18 -2 -37 -4 -42 -5 -5 0 -3 -8 4 -16 7 -8 11 -15 9 -16 -2 0 -13 -2 -23 -4
-11 -2 -30 -6 -43 -10 -13 -3 -23 -1 -23 5 0 5 11 10 24 10 14 0 28 5 31 10 4
6 -7 10 -25 10 -32 0 -41 -11 -44 -55 0 -14 -7 -25 -15 -25 -10 0 -12 8 -8 29
6 27 4 28 -26 26 -18 -2 -40 -3 -50 -4 -15 -1 -18 -9 -16 -50 2 -28 6 -48 11
-45 5 3 6 10 2 15 -3 6 5 8 20 5 13 -2 26 -1 28 4 2 4 41 -2 87 -13 81 -20 84
-22 56 -33 -15 -6 -41 -10 -57 -9 -15 1 -28 -2 -28 -7 0 -5 -4 -7 -8 -4 -4 2
-14 1 -22 -4 -9 -5 -20 -4 -29 3 -10 8 -13 8 -8 1 4 -7 0 -15 -9 -18 -12 -4
-15 -2 -10 9 5 13 2 14 -15 5 -12 -7 -19 -19 -17 -32 2 -16 17 -24 73 -38 39
-10 241 -61 450 -115 l380 -96 155 31 c123 26 158 30 173 21 24 -15 75 -5 79
16 2 11 28 21 90 34 79 16 93 17 143 4 81 -22 93 -20 87 10 -7 39 36 50 114
29 50 -13 61 -20 57 -34 -4 -16 4 -17 80 -16 64 1 90 5 103 18 11 9 30 18 43
20 29 4 50 33 35 48 -11 11 -189 -23 -211 -41 -8 -7 -29 -5 -69 7 l-56 18 43
11 c151 39 431 88 447 80 25 -15 70 -7 74 13 2 13 33 23 132 43 128 27 129 27
192 9 35 -9 66 -15 69 -12 3 3 5 16 5 28 0 13 5 26 10 29 14 8 488 106 519
107 13 0 26 -4 30 -9 10 -17 71 -3 71 16 0 25 80 42 126 28 l34 -10 0 -1034
c0 -1026 0 -1033 20 -1033 19 0 20 7 21 138 0 75 0 188 -1 250 -2 163 25 232
88 232 11 0 22 -9 25 -20 3 -13 10 -18 21 -14 11 4 16 1 16 -10 0 -9 -4 -16
-9 -16 -5 0 -4 -11 2 -25 10 -21 14 -23 23 -10 28 37 39 21 163 -235 4 -8 27
-77 51 -153 43 -132 46 -137 73 -137 25 0 27 3 21 28 -3 15 -8 34 -11 42 -4 8
-8 26 -10 40 -8 60 -118 400 -154 477 -30 64 -36 93 -20 93 5 0 11 9 14 21 3
12 10 18 15 15 5 -3 15 5 22 19 7 13 18 21 26 18 9 -3 14 2 14 12 0 12 6 16
20 12 13 -3 20 0 20 9 0 17 26 19 33 2 3 -8 6 -6 6 5 1 18 21 25 21 7 0 -5 5
-10 11 -10 5 0 7 6 4 12 -4 7 0 5 8 -5 10 -13 17 -15 22 -7 9 14 32 -28 34
-61 0 -13 3 -35 5 -49 2 -14 4 -46 5 -72 0 -27 4 -48 9 -48 4 0 7 375 7 832
l0 833 100 21 c80 18 104 20 120 11 29 -17 76 -9 82 13 5 20 -4 18 294 79
l146 30 54 -19 c76 -28 90 -27 83 8 -7 36 6 42 181 78 128 26 131 26 183 8 51
-17 64 -28 40 -36 -6 -2 -9 -9 -5 -15 11 -18 182 -10 204 9 10 9 33 19 51 23
37 8 59 37 39 53 -9 8 -45 4 -125 -12 -61 -12 -114 -25 -118 -28 -3 -4 -27 1
-52 10 l-47 16 40 12 c50 16 85 17 85 4 0 -12 50 -13 66 -2 6 4 13 14 16 23 4
9 23 19 45 22 21 3 103 20 183 37 303 64 297 64 349 45 25 -9 59 -19 75 -22
28 -6 29 -5 23 25 -7 35 3 44 58 55 17 3 95 20 175 36 153 33 196 37 202 21 2
-5 19 -7 41 -3 27 4 37 10 37 24 0 11 2 19 5 19 9 0 461 92 524 106 36 9 75
13 88 9 13 -3 23 -1 23 5 0 14 23 7 102 -28 60 -26 72 -42 19 -24 -36 13 -91
-2 -91 -24 0 -16 31 -18 78 -5 22 7 32 6 32 -1 0 -16 93 -1 105 16 6 8 28 17
48 21 21 4 39 11 42 15 8 14 -74 20 -121 10 -51 -12 -74 -2 -71 30 2 27 34 38
250 81 110 22 119 23 128 7 5 -10 15 -15 22 -13 6 2 24 6 40 9 18 4 27 13 27
26 0 11 7 20 15 20 11 0 15 11 15 43 0 31 -3 38 -10 27 -7 -11 -10 -5 -11 25
-1 28 -3 32 -6 15 -8 -41 -20 -43 -18 -3 0 22 6 39 13 39 7 1 17 2 22 3 6 0
10 25 10 55 0 50 -2 55 -27 64 -16 6 -80 31 -143 55 -112 44 -250 97 -417 161
-76 28 -83 33 -83 59 0 15 -4 27 -10 27 -5 0 -10 -11 -10 -24 0 -21 -7 -26
-51 -36 -42 -10 -53 -10 -59 1 -5 7 -7 16 -4 20 6 10 -68 -1 -86 -13 -11 -6
-9 -7 7 -3 13 4 32 0 43 -8 18 -13 13 -15 -65 -32 -47 -10 -89 -15 -92 -11 -3
3 0 6 8 6 11 0 11 2 -1 10 -8 5 -28 10 -45 10 -23 0 -27 -3 -15 -10 11 -8 8
-9 -12 -4 -16 3 -39 3 -53 0 -22 -6 -25 -12 -25 -52 0 -32 -4 -44 -12 -41 -8
2 -13 19 -12 41 1 33 -1 36 -20 30 -34 -10 -38 -10 -43 4 -3 6 1 12 9 12 19 0
156 27 203 39 38 10 198 45 275 60 l35 6 7 100 c3 55 3 101 -1 103 -4 1 -6 74
-4 161 2 87 -1 176 -6 197 -7 29 -10 -2 -10 -126 0 -91 0 -175 -1 -187 0 -20
-3 -21 -25 -11 -19 8 -40 7 -97 -6 -229 -54 -327 -76 -339 -76 -5 0 -9 36 -9
81 0 77 -1 82 -31 110 -44 41 -221 124 -319 150 -47 13 -118 38 -158 56 -76
34 -71 29 -118 142 -10 24 -33 57 -51 74 -39 37 -41 58 -18 187 8 47 20 121
25 166 6 45 21 112 34 150 27 77 45 186 25 147 -8 -16 -21 -23 -41 -23 l-28 0
0 141 c0 129 2 145 22 178 12 20 28 42 35 50 49 49 -150 105 -285 80 -31 -6
-81 -12 -111 -13 -42 -1 -56 -5 -65 -21 -6 -10 -21 -28 -34 -38 -12 -10 -28
-24 -35 -31 -12 -13 -52 -36 -60 -36 -3 0 -14 16 -26 35 -11 19 -27 35 -36 35
-9 0 -14 -4 -11 -8 2 -4 -8 -8 -22 -7 -16 0 -26 -5 -24 -12 1 -7 -7 -13 -19
-13 -12 0 -23 -8 -26 -20 -3 -11 -9 -17 -14 -15 -4 3 -12 -3 -18 -12 -23 -39
-11 22 13 67 25 46 26 109 2 139 -8 11 -8 15 2 18 7 3 12 23 12 53 0 62 33
127 100 199 27 30 50 56 50 58 0 3 -8 12 -17 21 -16 16 -16 16 -10 -1z m387
-436 c13 -26 13 -58 -2 -67 -7 -4 -8 -3 -4 4 6 10 -7 17 -17 10 -2 -2 -10 2
-18 8 -8 7 -39 15 -69 19 l-55 8 50 18 c67 24 102 24 115 0z m94 -27 c9 -3 14
-10 11 -15 -3 -4 -12 -6 -19 -3 -7 3 -19 -2 -26 -10 -17 -21 -33 -10 -20 15
11 20 27 23 54 13z m-329 -53 c-5 -15 -2 -18 13 -14 11 2 22 0 26 -5 6 -10 63
-1 87 14 18 11 45 6 79 -14 21 -14 26 -22 20 -38 -10 -26 -120 -76 -180 -82
-57 -5 -71 9 -78 80 -4 42 -1 54 13 65 25 17 27 17 20 -6z m351 -36 c10 -8 29
-15 42 -15 21 0 23 -4 18 -30 -3 -16 -9 -43 -12 -60 -3 -18 -1 -30 5 -30 14 0
14 -54 1 -100 -6 -19 -11 -52 -12 -73 -1 -20 -4 -35 -6 -32 -3 3 -11 0 -19 -7
-18 -15 -21 -10 -27 47 -2 28 -5 59 -7 70 -1 11 -5 -20 -9 -70 -7 -91 -38
-185 -62 -185 -24 0 -48 -34 -48 -67 0 -26 -5 -36 -20 -40 -11 -3 -20 -10 -20
-16 0 -6 -26 -37 -57 -69 -64 -64 -92 -72 -130 -36 -22 21 -24 21 -37 3 -8
-11 -18 -15 -26 -10 -10 6 -9 10 4 17 19 11 12 30 -8 22 -16 -6 -40 21 -31 37
4 6 2 15 -4 19 -9 5 -9 11 3 23 20 19 20 27 2 27 -9 0 -12 7 -9 20 3 11 9 20
14 20 5 0 9 7 9 15 0 11 -5 12 -25 5 -20 -7 -25 -6 -25 5 0 8 -6 15 -12 15 -7
0 -3 7 9 15 34 24 137 46 218 48 76 1 86 12 24 26 -48 10 -145 -1 -141 -17 3
-15 -22 -16 -48 -2 -21 11 -17 40 5 40 7 0 23 22 36 49 18 41 29 52 65 66 51
19 59 45 14 45 -21 0 -40 -10 -64 -34 -55 -57 -107 -57 -108 0 0 35 29 211 37
224 13 21 34 8 61 -37 48 -83 72 -94 149 -68 l40 13 -52 -6 c-64 -6 -69 3 -10
18 76 21 163 68 175 95 7 14 16 24 21 20 5 -3 12 -1 16 5 9 14 38 12 61 -5z
m-586 -25 c-37 -26 -49 -30 -55 -20 -6 10 28 28 55 29 13 1 13 0 0 -9z m75
-88 c-10 -54 -20 -68 -67 -89 -58 -27 -115 -38 -99 -20 6 8 8 17 4 20 -3 4 -1
7 6 7 7 0 10 4 6 9 -3 5 5 18 18 28 13 10 24 23 25 28 0 6 9 12 19 14 28 5 55
42 43 57 -18 21 12 22 33 1 15 -15 17 -27 12 -55z m-175 13 c0 -25 -2 -45 -5
-45 -3 0 -16 10 -30 22 l-25 22 22 23 c31 33 38 29 38 -22z m-22 -101 c8 5 12
0 12 -13 0 -12 -6 -21 -13 -21 -19 0 -37 21 -37 44 0 19 1 19 13 1 8 -10 19
-15 25 -11z m122 -34 c-8 -5 -19 -10 -25 -10 -5 0 -3 5 5 10 8 5 20 10 25 10
6 0 3 -5 -5 -10z m44 -2 c-5 -8 -2 -9 9 -5 19 7 20 6 11 -17 -3 -9 -11 -16
-18 -16 -18 -1 -43 -24 -50 -47 -6 -19 -4 -22 10 -16 14 5 16 2 12 -18 -3 -13
-11 -52 -18 -86 -12 -52 -12 -64 1 -79 7 -9 12 -27 11 -39 -2 -13 9 -46 23
-74 15 -27 25 -58 22 -68 -4 -14 -5 -14 -6 4 -1 16 -8 23 -28 25 -23 2 -34 15
-61 68 -32 63 -33 68 -27 148 4 51 3 82 -3 82 -5 0 -12 14 -14 30 -3 17 -1 30
4 30 4 0 8 6 8 13 0 9 79 60 118 76 2 0 0 -4 -4 -11z m-94 -18 c-8 -5 -22 -9
-30 -9 -10 0 -8 3 5 9 27 12 43 12 25 0z m693 -342 c-3 -40 -12 -78 -19 -85
-7 -7 -10 -22 -7 -33 3 -11 0 -20 -6 -20 -8 0 -10 -19 -5 -63 7 -70 -21 -221
-39 -210 -6 4 -8 -8 -4 -30 3 -21 2 -37 -4 -37 -5 0 -9 -12 -9 -26 0 -14 -4
-33 -9 -42 -13 -26 -24 -115 -13 -108 6 3 8 -12 4 -39 -6 -61 3 -57 23 10 12
43 20 55 35 55 17 0 19 5 16 27 -3 14 -2 31 2 37 4 6 10 -5 13 -24 l6 -35 2
32 c2 52 16 45 17 -8 0 -37 -3 -48 -12 -45 -8 3 -16 1 -19 -4 -4 -6 1 -10 10
-10 28 0 26 -23 -11 -125 -19 -55 -40 -115 -45 -132 -12 -40 -24 -42 -43 -5
-8 15 -42 53 -75 86 -35 33 -61 67 -61 79 0 18 -5 19 -58 15 -64 -6 -111 8
-149 44 -26 25 -30 48 -8 48 8 0 15 5 15 10 0 6 -7 10 -15 10 -8 0 -24 18 -35
40 l-21 41 30 30 c17 16 32 33 33 37 2 4 10 6 18 4 60 -11 171 -13 204 -3 46
12 53 10 31 -13 -9 -9 -13 -20 -10 -26 11 -18 25 -10 25 14 0 14 7 32 16 40 8
9 11 16 4 16 -6 0 -4 9 5 24 18 27 10 57 -13 52 -35 -6 -53 -19 -48 -32 3 -7
0 -16 -6 -20 -19 -12 -128 -15 -128 -4 0 5 20 10 44 10 25 0 48 5 51 10 3 6
-1 10 -9 10 -9 0 -16 6 -16 14 0 15 21 26 51 26 12 0 16 5 13 15 -4 8 -13 15
-20 15 -8 0 -19 12 -25 27 -15 39 11 55 79 51 37 -2 52 1 52 10 0 6 7 12 16
12 8 0 13 4 10 9 -3 4 3 26 13 47 10 22 22 57 27 79 11 55 12 58 13 78 0 9 10
25 21 34 11 10 20 24 20 33 0 13 1 13 10 0 8 -13 10 -12 10 3 0 9 2 17 5 17 3
0 2 -33 -2 -72z m-549 -614 c5 -14 4 -15 -9 -4 -17 14 -19 20 -6 20 5 0 12 -7
15 -16z m226 -198 c0 -3 -4 -8 -10 -11 -5 -3 -10 -1 -10 4 0 6 5 11 10 11 6 0
10 -2 10 -4z m1480 -392 c0 -8 -5 -12 -10 -9 -6 4 -8 11 -5 16 9 14 15 11 15
-7z m30 -4 c0 -11 -4 -20 -8 -20 -4 0 -8 9 -8 20 0 11 4 20 8 20 4 0 8 -9 8
-20z m30 -5 c0 -14 -4 -25 -9 -25 -5 0 -8 11 -8 25 0 14 3 25 8 25 5 0 9 -11
9 -25z m-386 9 c26 -10 18 -24 -11 -23 -16 0 -22 3 -15 6 6 2 10 9 6 14 -6 11
-2 11 20 3z m416 -25 c0 -10 -4 -19 -10 -19 -5 0 -10 12 -10 26 0 14 4 23 10
19 6 -3 10 -15 10 -26z m-170 -24 c0 -41 -1 -44 -22 -36 -13 5 -22 17 -23 32
-4 37 9 48 16 14 l7 -30 1 33 c2 49 21 38 21 -13z m197 15 c2 -11 -2 -20 -7
-20 -6 0 -10 12 -10 27 0 29 12 24 17 -7z m-1233 -7 c10 -25 -4 -30 -20 -9 -8
11 -14 23 -14 28 0 13 28 -3 34 -19z m598 2 c-2 -14 -9 -25 -16 -25 -6 0 -21
-3 -34 -6 -18 -5 -21 -3 -16 11 7 16 2 17 -57 12 -35 -3 -59 -4 -54 -2 27 12
123 34 151 34 28 1 31 -2 26 -24z m468 -15 c0 -22 -4 -40 -10 -40 -5 0 -10 18
-10 40 0 22 5 40 10 40 6 0 10 -18 10 -40z m187 3 c-3 -10 -5 -4 -5 12 0 17 2
24 5 18 2 -7 2 -21 0 -30z m-157 -8 c0 -19 -4 -35 -10 -35 -5 0 -10 16 -10 35
0 19 5 35 10 35 6 0 10 -16 10 -35z m187 13 c-3 -8 -6 -5 -6 6 -1 11 2 17 5
13 3 -3 4 -12 1 -19z m-660 -25 c-3 -10 -5 -4 -5 12 0 17 2 24 5 18 2 -7 2
-21 0 -30z m350 5 c-3 -7 -5 -2 -5 12 0 14 2 19 5 13 2 -7 2 -19 0 -25z m157
26 c9 -3 16 -16 15 -28 0 -20 -1 -20 -9 -1 -7 17 -9 17 -9 3 -1 -28 -21 -21
-21 7 0 27 1 28 24 19z m-284 -57 c0 -31 -3 -38 -10 -27 -13 20 -13 83 0 75 6
-3 10 -25 10 -48z m28 1 c1 -32 -1 -48 -7 -43 -13 15 -19 95 -6 95 6 0 12 -23
13 -52z m82 42 c0 -5 -4 -10 -10 -10 -5 0 -10 5 -10 10 0 6 5 10 10 10 6 0 10
-4 10 -10z m-609 -20 c-70 -20 -148 -34 -140 -25 6 5 94 30 139 38 59 11 60 4
1 -13z m162 5 c5 -10 -4 -16 -31 -21 -20 -3 -46 -8 -57 -10 -11 -3 -2 6 20 19
47 30 61 32 68 12z m274 -32 c-3 -10 -5 -2 -5 17 0 19 2 27 5 18 2 -10 2 -26
0 -35z m33 11 c0 -21 -4 -33 -10 -29 -5 3 -10 19 -10 36 0 16 5 29 10 29 6 0
10 -16 10 -36z m360 26 c0 -5 -4 -10 -10 -10 -5 0 -10 5 -10 10 0 6 5 10 10
10 6 0 10 -4 10 -10z m-415 -9 c3 -5 1 -12 -5 -16 -5 -3 -10 1 -10 9 0 18 6
21 15 7z m144 -48 c1 -7 -3 -13 -9 -13 -5 0 -10 17 -9 38 1 33 2 34 9 12 4
-14 8 -31 9 -37z m21 15 c0 -36 -4 -35 -14 5 -4 16 -2 27 4 27 5 0 10 -14 10
-32z m-275 12 c-3 -5 0 -10 8 -10 14 0 27 -28 27 -62 0 -10 -4 -18 -10 -18 -5
0 -10 16 -10 35 0 19 -3 35 -8 35 -4 0 -6 -17 -4 -38 3 -33 1 -38 -17 -38 -12
0 -21 6 -21 13 0 7 -5 13 -11 13 -6 0 -9 -7 -6 -15 4 -8 2 -17 -3 -20 -6 -4
-10 4 -11 17 0 13 -2 35 -4 51 -2 15 0 27 5 27 5 0 11 -12 13 -27 4 -26 4 -25
6 5 2 45 21 31 23 -16 l1 -37 4 35 c4 41 10 60 18 60 4 0 3 -4 0 -10z m305
-11 c0 -11 -4 -17 -10 -14 -5 3 -10 13 -10 21 0 8 5 14 10 14 6 0 10 -9 10
-21z m485 1 c-3 -5 0 -12 6 -16 8 -4 9 -3 5 4 -4 7 -2 12 4 12 12 0 241 -88
249 -96 2 -2 -11 -2 -30 1 -28 4 -30 3 -9 -4 14 -5 34 -7 46 -4 11 2 45 -7 75
-21 30 -14 50 -26 44 -26 -5 -1 -19 -3 -30 -5 -20 -4 -81 13 -140 39 -16 7
-57 23 -90 36 -55 20 -108 41 -182 72 l-28 11 30 7 c34 7 58 2 50 -10z m-1233
-7 c14 -13 21 -14 30 -5 7 7 21 12 33 12 16 0 17 -2 5 -10 -12 -8 -12 -10 5
-11 34 -2 -158 -41 -200 -41 l-40 0 25 -20 25 -21 -30 8 c-16 4 -37 8 -45 7
-19 -1 -230 -48 -250 -56 -27 -10 -100 -15 -100 -6 0 14 28 20 34 7 2 -7 5 -2
5 9 1 21 0 21 -56 7 -32 -8 -71 -18 -88 -21 -34 -8 -45 -32 -14 -32 11 0 18 4
15 9 -3 5 3 11 13 14 11 3 22 -1 25 -9 3 -9 -6 -15 -32 -19 -20 -4 -47 -10
-60 -16 -13 -5 -34 -9 -47 -9 -20 0 -25 -5 -25 -26 0 -16 -5 -24 -12 -21 -7 2
-13 19 -12 38 l1 34 -46 -3 c-69 -4 -31 13 69 31 47 9 126 25 175 36 50 11
135 30 190 42 101 22 148 38 113 39 -10 0 -18 4 -18 9 0 4 17 4 38 -1 29 -8
59 -5 142 15 58 14 107 26 109 26 3 1 13 -7 23 -16z m778 8 c0 -6 -4 -13 -10
-16 -5 -3 -10 1 -10 9 0 9 5 16 10 16 6 0 10 -4 10 -9z m-411 -78 c2 -42 -18
-24 -22 20 l-4 42 -2 -50 c-2 -38 -4 -45 -11 -30 -16 36 -12 83 8 87 17 4 28
-21 31 -69z m133 37 c3 -16 1 -30 -3 -30 -4 0 -9 14 -11 30 -3 17 -1 30 3 30
4 0 9 -13 11 -30z m603 20 c0 -1 14 -3 30 -5 40 -3 39 -3 26 -18 -12 -16 -5
-27 18 -27 13 0 13 2 2 9 -21 13 5 23 29 11 11 -5 29 -14 40 -20 11 -5 27 -10
35 -10 8 0 15 -5 15 -11 0 -6 -7 -8 -17 -4 -13 4 -11 0 5 -15 24 -23 24 -39 0
-24 -7 5 -17 9 -23 10 -5 0 -16 2 -23 2 -7 1 -11 6 -8 10 7 11 -38 10 -45 -1
-4 -6 -13 -6 -20 -1 -8 5 -16 9 -19 9 -3 1 -22 7 -44 14 -27 9 -34 16 -25 22
10 6 6 11 -14 18 -38 15 -46 13 -23 -4 21 -16 10 -21 -13 -6 -25 16 -21 38 5
35 13 -1 24 1 24 6 0 4 10 6 23 5 12 -1 22 -4 22 -5z m-816 -77 c0 -13 -3 -23
-9 -23 -6 0 -9 23 -9 53 1 44 2 48 9 22 4 -16 8 -40 9 -52z m21 25 c0 -62 -5
-60 -14 5 -5 31 -4 47 3 47 7 0 11 -22 11 -52z m220 25 c0 -22 -2 -25 -10 -13
-13 20 -13 40 0 40 6 0 10 -12 10 -27z m-301 -36 c0 -33 -2 -38 -9 -22 -12 28
-12 78 0 70 6 -3 10 -25 9 -48z m30 -15 c1 -20 -3 -31 -9 -27 -5 3 -10 27 -9
53 0 35 3 42 9 27 5 -11 9 -35 9 -53z m301 53 c0 -8 -4 -15 -10 -15 -5 0 -10
7 -10 15 0 8 5 15 10 15 6 0 10 -7 10 -15z m-386 -27 c4 -17 2 -28 -4 -28 -5
0 -10 14 -10 32 0 36 4 35 14 -4z m28 -3 c2 -19 0 -35 -4 -35 -4 0 -8 9 -8 19
0 11 -3 26 -6 35 -3 9 -2 16 4 16 5 0 12 -16 14 -35z m388 31 c0 -3 -4 -8 -10
-11 -5 -3 -10 -1 -10 4 0 6 5 11 10 11 6 0 10 -2 10 -4z m-440 -27 c0 -5 -4
-9 -10 -9 -5 0 -10 7 -10 16 0 8 5 12 10 9 6 -3 10 -10 10 -16z m-30 1 c0 -5
-2 -10 -4 -10 -3 0 -8 5 -11 10 -3 6 -1 10 4 10 6 0 11 -4 11 -10z m-81 -42
c1 -5 -3 -8 -9 -8 -5 0 -10 12 -9 28 0 24 1 25 9 7 5 -11 9 -23 9 -27z m-27 2
c3 -16 1 -30 -4 -30 -4 0 -8 6 -8 14 0 8 -3 21 -6 30 -3 9 -2 16 4 16 5 0 12
-13 14 -30z m795 24 c-3 -3 -12 -4 -19 -1 -8 3 -5 6 6 6 11 1 17 -2 13 -5z
m-847 -25 c0 -5 -4 -9 -10 -9 -5 0 -10 7 -10 16 0 8 5 12 10 9 6 -3 10 -10 10
-16z m23 1 c3 -11 1 -20 -4 -20 -5 0 -9 9 -9 20 0 11 2 20 4 20 2 0 6 -9 9
-20z m937 10 c8 -5 11 -10 5 -10 -5 0 -17 5 -25 10 -8 5 -10 10 -5 10 6 0 17
-5 25 -10z m492 -25 c9 -2 27 -9 40 -16 13 -7 29 -14 37 -15 7 -2 18 -7 23
-12 6 -6 -1 -8 -18 -4 -17 3 -25 1 -21 -5 4 -6 -3 -9 -16 -8 -12 0 -30 -3 -40
-7 -11 -6 -16 -5 -15 2 2 6 -14 17 -34 24 -21 8 -38 11 -38 7 -1 -3 -7 8 -14
24 -18 41 -12 46 37 29 23 -9 50 -17 59 -19z m-1489 18 c-8 -3 -13 -24 -14
-51 0 -36 -3 -42 -9 -27 -20 47 -9 83 25 83 6 0 4 -2 -2 -5z m902 -13 c14 -5
25 -12 25 -14 0 -5 -92 24 -100 32 -6 6 41 -5 75 -18z m45 10 c8 -5 11 -10 5
-10 -5 0 -17 5 -25 10 -8 5 -10 10 -5 10 6 0 17 -5 25 -10z m-990 -19 c0 -10
3 -33 6 -50 4 -20 3 -31 -5 -31 -6 0 -12 12 -12 28 l-2 27 -4 -26 c-5 -31 -39
-46 -46 -20 -3 11 -5 9 -6 -6 -1 -28 -21 -31 -21 -4 0 10 -3 33 -6 50 -4 19
-2 31 4 31 6 0 13 -12 15 -27 4 -25 4 -24 7 7 l2 35 14 -40 14 -40 -3 38 c-3
38 8 51 16 20 4 -14 5 -12 6 5 1 27 21 30 21 3z m1095 9 c13 -6 15 -9 5 -9 -8
0 -22 4 -30 9 -18 12 -2 12 25 0z m-1036 -58 c1 -13 -3 -20 -9 -17 -5 3 -10
23 -9 43 0 30 2 33 9 17 5 -11 9 -30 9 -43z m985 49 c4 -5 -3 -7 -14 -4 -23 6
-26 13 -6 13 8 0 17 -4 20 -9z m-1145 -81 c0 -23 -2 -30 -8 -21 -7 11 -10 11
-16 0 -6 -9 -10 -8 -16 7 -7 17 -8 17 -8 2 -1 -20 -21 -25 -21 -5 0 6 -3 30
-6 52 -7 44 11 40 19 -5 3 -20 5 -19 7 10 l2 35 14 -40 14 -40 -4 37 c-3 20
-1 39 2 43 9 9 20 -31 21 -75z m210 41 c0 -25 0 -25 -9 -3 -12 27 -24 29 -15
2 3 -11 2 -20 -3 -20 -10 0 -23 46 -15 54 2 2 13 2 24 -1 13 -4 19 -14 18 -32z
m1312 11 c-7 -2 -18 1 -23 6 -8 8 -4 9 13 5 13 -4 18 -8 10 -11z m-1625 -29
c-6 45 9 50 18 6 9 -46 8 -77 -3 -61 -6 11 -10 10 -16 -5 -7 -16 -9 -15 -15 7
-8 24 -8 24 -9 3 -1 -33 -21 -28 -22 5 -1 24 -2 23 -8 -8 l-7 -35 -12 45 -12
45 5 -42 c3 -24 1 -43 -4 -43 -8 0 -21 47 -21 79 0 23 40 25 41 3 1 -10 4 -7
9 8 7 25 9 24 23 -20 3 -8 6 1 7 20 l2 35 14 -40 14 -40 -4 38z m-233 20 c-7
-2 -19 -2 -25 0 -7 3 -2 5 12 5 14 0 19 -2 13 -5z m577 -3 c0 -5 -2 -10 -4
-10 -3 0 -8 5 -11 10 -3 6 -1 10 4 10 6 0 11 -4 11 -10z m930 0 c18 -12 2 -12
-25 0 -13 6 -15 9 -5 9 8 0 22 -4 30 -9z m415 -10 c7 -12 -2 -12 -30 0 -19 8
-19 9 2 9 12 1 25 -3 28 -9z m-1805 -12 c0 -7 3 -31 6 -53 5 -27 3 -37 -3 -30
-15 14 -26 95 -13 95 5 0 10 -6 10 -12z m-485 -13 c-22 -8 -51 -14 -65 -14
-14 -1 -32 -6 -40 -11 -11 -7 -5 -10 23 -10 22 0 36 -4 32 -10 -3 -5 -13 -6
-22 -3 -11 4 -14 2 -9 -5 5 -8 -4 -11 -28 -10 -19 1 -41 -3 -48 -9 -7 -5 -28
-8 -46 -6 -21 2 -31 -1 -27 -7 4 -6 3 -10 -2 -9 -4 1 -10 0 -13 -1 -3 -1 -12
-3 -20 -5 -8 -1 -64 -14 -123 -29 -118 -28 -131 -30 -123 -18 2 4 2 13 -2 19
-5 7 -24 7 -65 -1 -32 -7 -56 -14 -53 -16 2 -3 -9 -5 -25 -6 -38 -1 -60 -21
-39 -34 9 -6 10 -10 3 -10 -6 0 -18 -3 -27 -6 -19 -7 -22 21 -3 30 6 3 1 4
-13 3 -19 -1 -24 -7 -22 -23 2 -18 -5 -23 -46 -31 -38 -7 -54 -6 -68 4 -16 12
-15 13 12 13 16 0 36 5 44 11 16 10 -17 7 -114 -12 -27 -5 -51 -7 -53 -5 -3 2
11 7 29 11 18 3 62 13 98 21 36 8 83 19 105 24 22 5 81 18 130 29 50 11 133
30 185 41 52 12 133 30 179 41 46 11 86 17 89 15 3 -3 -1 -8 -9 -10 -41 -13
-43 -14 -23 -15 12 -1 31 8 44 19 25 21 32 24 115 39 71 13 86 11 40 -4z m440
-42 c7 -46 0 -57 -15 -20 -9 22 -9 22 -10 -3 0 -19 -3 -21 -9 -10 -14 25 -21
80 -11 80 6 0 10 -9 10 -20 0 -11 4 -20 9 -20 4 0 6 12 3 28 -3 18 -1 24 6 17
5 -5 13 -29 17 -52z m23 9 c6 -23 6 -42 2 -42 -7 0 -20 48 -20 78 0 25 8 9 18
-36z m-75 -29 c4 -18 3 -33 -2 -33 -9 0 -21 50 -20 84 0 20 0 20 8 1 4 -11 11
-35 14 -52z m-33 45 c0 -7 3 -31 7 -53 3 -22 2 -36 -3 -32 -4 4 -9 14 -10 21
-1 7 -5 28 -9 45 -4 20 -3 31 4 31 6 0 11 -6 11 -12z m-260 -38 c16 0 43 -69
34 -89 -5 -13 -8 -11 -14 9 -8 25 -8 25 -9 2 -1 -13 -5 -21 -10 -17 -5 3 -13
0 -17 -7 -5 -8 -13 3 -21 32 l-12 45 5 -41 c5 -35 2 -42 -15 -47 -16 -4 -21 1
-26 27 -4 17 -9 39 -11 49 -3 9 -1 17 5 17 6 0 12 -10 12 -22 1 -21 2 -21 6
-3 5 19 20 35 34 35 4 0 10 -16 13 -35 4 -19 11 -35 16 -35 5 0 5 13 0 31 -5
18 -7 36 -4 40 3 5 0 9 -5 9 -6 0 -11 10 -10 23 l0 22 9 -22 c5 -13 14 -23 20
-23z m214 -12 c4 -24 3 -38 -4 -38 -5 0 -10 6 -10 14 0 7 -3 29 -6 47 -5 23
-3 31 3 24 6 -5 14 -27 17 -47z m22 28 c3 -13 4 -38 2 -57 -3 -30 -4 -27 -13
24 -10 55 -2 82 11 33z m2171 -13 c-3 -10 -5 -4 -5 12 0 17 2 24 5 18 2 -7 2
-21 0 -30z m-2248 -20 c1 -7 -3 -13 -9 -13 -5 0 -10 15 -9 33 0 27 2 29 9 12
5 -11 9 -26 9 -32z m25 15 c6 -28 2 -48 -8 -37 -8 10 -15 69 -7 69 5 0 11 -14
15 -32z m2176 23 c0 -6 -4 -13 -10 -16 -5 -3 -10 1 -10 9 0 9 5 16 10 16 6 0
10 -4 10 -9z m30 -6 c0 -8 -4 -15 -10 -15 -5 0 -10 7 -10 15 0 8 5 15 10 15 6
0 10 -7 10 -15z m-2290 -11 c0 -8 -4 -12 -10 -9 -5 3 -10 10 -10 16 0 5 5 9
10 9 6 0 10 -7 10 -16z m30 -10 c0 -14 -4 -23 -10 -19 -5 3 -10 15 -10 26 0
10 5 19 10 19 6 0 10 -12 10 -26z m1050 16 c8 -5 11 -10 5 -10 -5 0 -17 5 -25
10 -8 5 -10 10 -5 10 6 0 17 -5 25 -10z m1097 -34 c-4 -51 -17 -57 -17 -8 0
23 4 42 9 42 6 0 9 -15 8 -34z m37 28 c11 -4 16 -18 15 -43 -1 -26 -3 -29 -6
-11 -8 51 -17 55 -23 10 l-7 -45 -1 48 c-2 50 -2 50 22 41z m-97 -41 c-3 -10
-5 -4 -5 12 0 17 2 24 5 18 2 -7 2 -21 0 -30z m33 12 c0 -33 -15 -33 -16 0 -1
14 2 25 7 25 5 0 9 -11 9 -25z m-80 5 c0 -5 -2 -10 -4 -10 -3 0 -8 5 -11 10
-3 6 -1 10 4 10 6 0 11 -4 11 -10z m17 -12 c-3 -8 -6 -5 -6 6 -1 11 2 17 5 13
3 -3 4 -12 1 -19z m173 -2 c0 -14 -4 -28 -10 -31 -6 -4 -10 7 -10 24 0 17 5
31 10 31 6 0 10 -11 10 -24z m-2301 -29 c0 -27 -2 -29 -9 -12 -12 28 -12 57 0
50 6 -3 10 -21 9 -38z m721 17 c36 -13 52 -22 35 -19 -28 6 -116 43 -105 44 3
0 34 -11 70 -25z m1603 1 c-7 -21 -13 -19 -13 6 0 11 4 18 10 14 5 -3 7 -12 3
-20z m-2513 -7 l9 -23 0 25 c1 35 18 13 25 -35 6 -36 5 -41 -13 -41 -15 0 -22
11 -30 43 -13 48 -13 53 -6 53 3 0 10 -10 15 -22z m220 -14 c0 -14 -4 -22 -10
-19 -5 3 -10 17 -10 31 0 14 4 22 10 19 6 -3 10 -17 10 -31z m1969 -16 l-2
-53 -7 45 c-7 42 -5 60 6 60 2 0 3 -24 3 -52z m31 13 c0 -22 -4 -43 -10 -46
-6 -4 -10 12 -10 39 0 25 5 46 10 46 6 0 10 -18 10 -39z m-2265 -31 c6 -50 -7
-30 -20 30 -5 24 -4 32 3 25 6 -5 14 -30 17 -55z m30 -28 c-9 -9 -14 3 -19 48
l-6 45 15 -44 c8 -25 13 -47 10 -49z m258 73 c4 -8 2 -17 -3 -20 -6 -4 -10 3
-10 14 0 25 6 27 13 6z m1914 -52 c-2 -16 -4 -5 -4 22 0 28 2 40 4 28 2 -13 2
-35 0 -50z m87 26 c-6 -48 -14 -48 -14 0 0 23 4 40 9 37 5 -3 7 -20 5 -37z
m-2320 4 c4 -16 9 -36 12 -45 3 -10 1 -18 -4 -18 -6 0 -13 12 -16 28 -4 15 -9
35 -12 45 -3 9 -1 17 4 17 6 0 13 -12 16 -27z m343 5 c-3 -8 -6 -5 -6 6 -1 11
2 17 5 13 3 -3 4 -12 1 -19z m1873 -17 c0 -22 -4 -43 -10 -46 -6 -4 -10 12
-10 39 0 25 5 46 10 46 6 0 10 -18 10 -39z m127 -8 c-3 -10 -5 -2 -5 17 0 19
2 27 5 18 2 -10 2 -26 0 -35z m-2393 6 c9 -45 7 -70 -3 -44 -15 39 -21 75 -12
75 4 0 11 -14 15 -31z m30 -24 l6 -40 -14 35 c-17 41 -20 68 -7 55 5 -6 12
-28 15 -50z m2396 30 c0 -8 -4 -17 -10 -20 -6 -4 -10 5 -10 20 0 15 4 24 10
20 6 -3 10 -12 10 -20z m-2477 -12 c5 -26 2 -42 -7 -32 -9 11 -15 59 -7 59 5
0 11 -12 14 -27z m33 -41 c-10 -9 -15 2 -21 39 l-5 34 15 -34 c9 -18 14 -36
11 -39z m834 58 c8 -5 11 -10 5 -10 -5 0 -17 5 -25 10 -8 5 -10 10 -5 10 6 0
17 -5 25 -10z m1420 -25 c0 -19 -2 -35 -4 -35 -2 0 -6 16 -8 35 -2 19 0 35 4
35 4 0 8 -16 8 -35z m207 13 c-3 -8 -6 -5 -6 6 -1 11 2 17 5 13 3 -3 4 -12 1
-19z m-2818 3 c9 -6 10 -10 2 -16 -7 -4 -18 -1 -26 5 -12 10 -15 10 -15 -2 0
-9 -18 -18 -50 -24 -27 -6 -50 -7 -50 -2 0 4 9 8 20 8 11 0 34 9 52 20 36 22
47 24 67 11z m294 -11 c3 -11 1 -18 -4 -14 -5 3 -9 12 -9 20 0 20 7 17 13 -6z
m2284 -32 c-2 -13 -4 -5 -4 17 -1 22 1 32 4 23 2 -10 2 -28 0 -40z m-2307 32
c0 -5 -2 -10 -4 -10 -3 0 -8 5 -11 10 -3 6 -1 10 4 10 6 0 11 -4 11 -10z m735
-8 c-3 -3 -11 0 -18 7 -9 10 -8 11 6 5 10 -3 15 -9 12 -12z m1553 -12 c0 -16
-4 -30 -9 -30 -5 0 -9 14 -9 30 0 17 4 30 8 30 5 0 9 -13 10 -30z m-2386 -24
c-2 -5 -9 -1 -14 8 -5 9 -6 21 -2 28 9 14 25 -22 16 -36z m1183 26 c-3 -3 -11
0 -18 7 -9 10 -8 11 6 5 10 -3 15 -9 12 -12z m1172 -29 c-3 -10 -5 -2 -5 17 0
19 2 27 5 18 2 -10 2 -26 0 -35z m-3347 -4 c8 -14 6 -16 -10 -12 -11 3 -20 9
-20 13 0 5 -3 17 -7 27 -6 16 -5 16 11 4 9 -8 21 -22 26 -32z m969 -5 c13 -50
7 -73 -7 -33 -17 45 -22 79 -13 79 5 0 14 -21 20 -46z m1058 40 c-3 -3 -12 -4
-19 -1 -8 3 -5 6 6 6 11 1 17 -2 13 -5z m1290 -26 c-3 -7 -5 -2 -5 12 0 14 2
19 5 13 2 -7 2 -19 0 -25z m-2403 -5 c3 -16 8 -38 12 -50 4 -14 2 -23 -5 -23
-6 0 -11 8 -12 18 0 15 -1 14 -8 -2 -7 -18 -9 -16 -19 14 -17 48 -15 71 4 40
l15 -25 -6 28 c-3 15 -1 27 4 27 4 0 11 -12 15 -27z m31 -28 c8 -49 -9 -28
-20 25 -5 24 -4 32 3 25 6 -5 13 -28 17 -50z m960 45 c13 -6 15 -9 5 -9 -8 0
-22 4 -30 9 -18 12 -2 12 25 0z m-1031 -75 c5 -19 4 -26 -2 -20 -15 16 -32 76
-25 88 7 11 10 2 27 -68z m-35 34 c19 -56 11 -77 -10 -24 -17 44 -19 26 -3
-27 3 -10 1 -18 -4 -18 -16 0 -33 83 -19 92 20 13 25 9 36 -23z m-44 -44 c5
-30 4 -36 -4 -25 -7 10 -11 11 -11 3 0 -20 -20 -15 -21 5 0 13 -2 14 -6 2 -14
-36 -59 -40 -74 -7 -9 20 -9 20 -4 -5 7 -38 -12 -36 -20 2 -4 16 -11 32 -16
35 -5 4 -5 -5 1 -20 12 -31 13 -58 3 -52 -5 3 -17 1 -28 -3 -16 -6 -23 -1 -32
23 -7 16 -13 39 -12 51 0 13 6 5 16 -22 8 -24 17 -41 19 -39 3 2 0 16 -6 31
-5 15 -10 32 -10 37 0 16 18 10 23 -8 3 -13 5 -11 6 6 0 13 4 22 7 18 3 -3 17
-2 30 3 17 7 24 6 25 -3 0 -9 2 -9 6 1 7 17 21 15 26 -5 4 -15 5 -14 6 2 2 35
37 28 49 -8 11 -32 11 -32 6 8 -7 52 11 26 21 -30z m-450 46 c-11 -5 -23 -7
-26 -5 -4 2 -10 -16 -13 -41 -5 -33 -11 -43 -22 -38 -17 6 -18 34 -1 52 10 11
8 13 -13 7 -14 -3 -32 -6 -40 -6 -8 0 -20 -10 -25 -22 -7 -17 -17 -22 -38 -21
-18 1 -25 -2 -21 -9 5 -7 0 -9 -14 -6 -12 4 -22 2 -22 -4 0 -6 -7 -7 -16 -4
-12 4 -15 2 -10 -9 7 -18 -7 -18 -59 0 -48 18 -65 19 -65 4 0 -5 5 -7 10 -4 6
4 19 4 28 0 19 -8 -147 -52 -210 -56 -21 -2 -38 -6 -38 -9 0 -4 -13 -6 -30 -5
-16 1 -30 -2 -30 -6 0 -12 -34 -3 -38 11 -3 8 0 10 9 5 11 -6 11 -5 2 5 -14
15 -34 4 -27 -15 7 -16 -17 -28 -79 -39 -28 -5 -37 -4 -32 4 4 6 1 17 -5 25
-9 11 -9 15 -1 15 6 0 11 -4 11 -9 0 -17 34 -22 49 -6 14 13 12 15 -14 16
l-30 1 30 8 c32 8 210 49 235 54 69 12 132 30 118 34 -10 2 -18 8 -18 14 0 5
7 7 16 4 41 -16 65 -16 123 -1 96 25 151 33 151 24 0 -5 -10 -10 -22 -10 -20
-1 -20 -2 -4 -6 12 -3 25 3 35 15 16 21 80 40 136 40 25 1 27 -1 10 -7z m120
0 c3 -5 1 -12 -4 -15 -5 -3 -11 1 -15 9 -6 16 9 21 19 6z m535 -1 c0 -5 7 -7
15 -4 9 4 15 0 15 -9 0 -26 -49 -11 -50 16 0 4 5 7 10 7 6 0 10 -4 10 -10z
m1025 0 c3 -6 -1 -7 -9 -4 -18 7 -21 14 -7 14 6 0 13 -4 16 -10z m-1466 -52
c19 -52 22 -68 12 -68 -6 0 -11 8 -11 18 0 9 -5 24 -11 32 -7 11 -8 4 -4 -25
l6 -40 -16 34 c-17 38 -20 65 -5 56 6 -3 10 -1 10 4 0 18 10 12 19 -11z m-332
-25 c-3 -10 -5 -4 -5 12 0 17 2 24 5 18 2 -7 2 -21 0 -30z m286 15 c3 -13 9
-33 12 -45 4 -14 3 -23 -3 -23 -5 0 -13 12 -16 28 -4 15 -9 35 -12 45 -3 9 -1
17 4 17 5 0 12 -10 15 -22z m-49 -15 c3 -16 9 -39 12 -52 5 -16 3 -22 -3 -18
-6 4 -13 19 -16 34 -3 16 -9 36 -12 46 -4 9 -3 17 3 17 5 0 12 -12 16 -27z
m35 -48 c0 -14 -4 -9 -14 14 -8 18 -15 41 -14 50 1 22 28 -39 28 -64z m-49 -4
c0 -27 -18 3 -24 39 l-6 35 15 -30 c8 -16 14 -37 15 -44z m-65 38 c10 -29 -3
-37 -14 -8 -8 20 -10 21 -10 5 -1 -16 -4 -17 -13 -8 -10 10 -10 15 2 22 22 14
28 12 35 -11z m29 -1 c8 -32 7 -40 -3 -34 -11 7 -21 56 -11 56 4 0 10 -10 14
-22z m801 -9 l20 -8 -20 0 c-11 0 -33 6 -50 14 l-30 14 30 -6 c17 -3 39 -10
50 -14z m-955 -8 c0 -11 5 -23 12 -27 8 -5 9 -2 5 10 -6 14 -3 17 9 12 9 -3
26 -9 39 -12 22 -5 43 -44 24 -44 -5 0 -9 7 -9 15 0 8 -4 15 -9 15 -5 0 -7
-10 -5 -22 3 -18 1 -16 -11 7 l-15 30 6 -34 c4 -23 3 -31 -5 -27 -6 4 -11 14
-11 22 0 8 -4 14 -10 14 -5 0 -7 -7 -4 -15 4 -8 3 -15 0 -15 -4 0 -10 10 -15
23 -19 51 -22 67 -12 67 6 0 11 -9 11 -19z m-14 -36 c4 -21 3 -27 -4 -20 -6 6
-14 24 -18 40 -4 21 -3 27 4 20 6 -5 14 -23 18 -40z m-50 -12 c10 -29 10 -39
1 -45 -19 -12 -22 -10 -34 20 -11 26 -11 26 -7 -8 l4 -35 -19 40 c-10 22 -17
41 -16 43 6 7 54 -18 58 -30 6 -18 0 12 -9 42 -11 38 8 15 22 -27z m18 31 c9
-23 7 -36 -3 -30 -12 8 -21 46 -11 46 4 0 11 -7 14 -16z m1056 6 c8 -5 11 -10
5 -10 -5 0 -17 5 -25 10 -8 5 -10 10 -5 10 6 0 17 -5 25 -10z m-1110 -10 c0
-5 -2 -10 -4 -10 -3 0 -8 5 -11 10 -3 6 -1 10 4 10 6 0 11 -4 11 -10z m-36
-41 c18 -45 19 -49 8 -49 -5 0 -15 19 -22 43 -7 23 -15 37 -17 30 -2 -7 0 -21
6 -32 6 -11 11 -28 10 -38 0 -12 -5 -8 -14 12 -25 60 -26 71 -6 72 14 1 24
-10 35 -38z m-70 6 l-5 30 14 -25 c27 -46 29 -67 9 -72 -15 -4 -22 4 -35 38
-17 48 -10 70 9 27 l13 -28 -5 30z m326 9 c0 -8 -4 -12 -10 -9 -5 3 -10 10
-10 16 0 5 5 9 10 9 6 0 10 -7 10 -16z m-355 -31 c9 -20 14 -41 12 -47 -4 -11
-37 57 -37 75 0 19 10 7 25 -28z m830 27 c13 -6 15 -9 5 -9 -8 0 -22 4 -30 9
-18 12 -2 12 25 0z m-875 -46 c13 -40 6 -60 -8 -23 -20 54 -24 71 -14 65 6 -3
16 -22 22 -42z m23 4 c9 -21 12 -38 7 -38 -8 0 -30 53 -30 73 0 15 6 6 23 -35z
m-97 -26 c-9 -8 -14 0 -21 33 l-6 30 16 -28 c9 -16 14 -31 11 -35z m21 23 c6
-19 8 -35 3 -35 -4 0 -10 8 -13 18 -2 9 -8 25 -12 35 -4 9 -3 17 2 17 5 0 14
-16 20 -35z m31 -12 c6 -18 7 -33 2 -33 -8 0 -30 53 -30 73 0 18 16 -6 28 -40z
m302 32 c0 -1 -9 -5 -20 -8 -12 -3 -20 0 -20 8 0 8 8 11 20 8 11 -3 20 -7 20
-8z m707 9 c-3 -3 -12 -4 -19 -1 -8 3 -5 6 6 6 11 1 17 -2 13 -5z m-1507 -14
c-34 -11 -60 -11 -35 0 11 5 29 8 40 8 16 0 15 -2 -5 -8z m413 -10 c3 -11 1
-20 -4 -20 -5 0 -9 2 -9 4 0 2 -3 11 -6 20 -3 9 -2 16 4 16 5 0 12 -9 15 -20z
m-28 0 c3 -5 1 -10 -4 -10 -6 0 -11 5 -11 10 0 6 2 10 4 10 3 0 8 -4 11 -10z
m-480 -15 c-22 -8 -49 -15 -60 -16 l-20 0 20 -9 c11 -4 24 -4 30 1 12 12 25
11 25 -2 0 -5 -4 -7 -10 -4 -5 3 -10 2 -10 -4 0 -5 -21 -14 -47 -20 -27 -6
-59 -14 -72 -17 -19 -6 -23 -4 -17 7 4 8 0 5 -8 -5 -15 -19 -22 -12 -17 17 0
4 -3 7 -9 7 -5 0 -10 -18 -10 -41 0 -28 -4 -39 -12 -36 -7 2 -12 18 -12 35 2
29 0 31 -25 26 -46 -10 -51 -13 -51 -31 0 -19 -18 -24 -275 -74 -55 -11 -107
-23 -115 -26 -27 -11 -80 -15 -80 -5 0 5 15 14 33 20 31 11 30 11 -13 6 -60
-7 -190 -34 -215 -45 -14 -6 -3 -8 33 -5 28 2 52 0 52 -5 0 -5 -13 -9 -29 -9
-17 0 -33 -5 -36 -11 -4 -5 -17 -9 -28 -8 -12 2 -33 -1 -47 -6 -14 -5 -32 -10
-40 -10 -8 -1 -24 -6 -35 -11 -11 -5 -39 -9 -63 -9 -33 0 -38 -2 -22 -9 11 -5
22 -16 25 -25 3 -9 17 -17 32 -18 28 -1 53 -26 53 -52 0 -11 -4 -10 -16 5 -8
10 -13 13 -9 6 4 -7 4 -20 1 -29 -5 -12 -9 -13 -21 -3 -8 7 -15 9 -15 6 0 -4
-5 -4 -12 0 -7 4 -24 9 -37 10 -14 2 -27 8 -29 13 -2 5 -9 8 -17 5 -7 -3 -16
0 -20 6 -9 14 -4 19 24 25 11 2 26 7 32 10 6 4 17 -1 24 -11 8 -11 15 -14 15
-8 0 20 -25 43 -50 45 -57 5 -96 -14 -91 -44 1 -5 -4 -7 -11 -4 -7 2 -12 18
-12 35 2 30 0 31 -30 25 -37 -7 -37 -7 -40 -30 -2 -10 -11 -19 -22 -20 -10 -2
-13 0 -6 3 13 6 17 34 5 34 -5 0 -18 -3 -31 -6 -17 -5 -20 -10 -12 -19 14 -17
2 -25 -47 -30 -21 -2 -40 -5 -43 -6 -3 -1 -9 -3 -15 -4 -5 -1 -17 -4 -25 -8
-32 -12 -60 -15 -60 -6 0 5 5 9 10 9 6 0 10 4 10 9 0 6 -15 11 -32 13 -23 2 0
10 77 26 213 45 245 55 227 69 -21 15 0 18 28 3 14 -8 46 -5 117 11 54 12 127
27 163 35 221 46 387 83 400 88 8 3 78 19 155 36 124 26 189 41 430 94 81 18
109 18 60 1z m145 7 c0 -13 -12 -22 -22 -16 -10 6 -1 24 13 24 5 0 9 -4 9 -8z
m237 -38 c-11 -11 -37 5 -37 21 0 9 5 13 10 10 6 -3 10 0 11 7 0 7 5 3 11 -10
6 -12 8 -25 5 -28z m-32 -16 c22 -56 10 -61 -16 -7 -11 24 -18 33 -14 19 16
-65 17 -66 2 -40 -27 46 -29 66 -8 67 14 1 24 -10 36 -39z m-50 -5 c23 -54 11
-66 -13 -13 -23 51 -29 47 -8 -5 8 -19 11 -35 7 -35 -5 0 -16 17 -24 38 -9 20
-16 31 -16 24 -1 -7 4 -22 10 -33 6 -11 8 -25 6 -32 -4 -11 -16 11 -32 62 -4
13 -3 21 2 18 5 -3 15 -2 23 4 24 14 29 11 45 -28z m-108 -76 c-5 -13 -24 29
-32 71 -4 19 1 15 16 -16 11 -24 18 -49 16 -55z m36 56 c11 -28 12 -40 3 -45
-18 -12 -24 -9 -34 20 -5 15 -13 35 -17 45 -5 13 -2 17 13 17 14 0 25 -12 35
-37z m-71 -18 c10 -25 13 -45 9 -45 -4 0 -14 18 -21 40 -7 22 -15 38 -18 35
-3 -2 1 -18 8 -35 18 -44 6 -48 -15 -4 -14 30 -15 38 -4 45 22 14 24 12 41
-36z m228 19 c0 -8 -4 -12 -10 -9 -5 3 -10 13 -10 21 0 8 5 12 10 9 6 -3 10
-13 10 -21z m-277 -26 c20 -49 15 -62 -7 -21 -8 15 -15 24 -16 20 0 -5 5 -17
11 -29 6 -11 8 -22 6 -25 -3 -3 -15 12 -27 34 -12 21 -18 29 -14 18 16 -48 14
-58 -5 -25 -21 36 -27 65 -13 56 4 -2 14 -1 22 5 23 14 26 12 43 -33z m327 30
c0 -4 -9 -8 -20 -8 -11 0 -20 4 -20 8 0 4 9 8 20 8 11 0 20 -4 20 -8z m-445
-48 c4 0 4 8 1 18 -4 12 0 18 12 19 12 1 25 -11 35 -33 26 -54 19 -64 -9 -14
-14 25 -22 34 -18 20 3 -14 10 -29 15 -34 11 -13 12 -26 1 -26 -5 0 -14 10
-21 23 l-11 22 6 -22 c3 -13 3 -23 -1 -23 -8 0 -35 65 -34 82 0 7 4 3 9 -9 5
-13 12 -23 15 -23z m-268 -2 c-3 -7 -5 -2 -5 12 0 14 2 19 5 13 2 -7 2 -19 0
-25z m191 -3 c19 -42 13 -53 -8 -15 -18 32 -19 32 -14 8 7 -34 -3 -37 -15 -5
-5 14 -4 25 3 29 18 12 22 10 34 -17z m56 -12 c23 -49 12 -54 -14 -6 -12 21
-18 29 -14 18 16 -48 14 -58 -5 -25 -25 44 -25 45 -3 47 13 1 25 -11 36 -34z
m-104 1 c0 -8 -4 -12 -10 -9 -5 3 -10 13 -10 21 0 8 5 12 10 9 6 -3 10 -13 10
-21z m-97 -15 c11 -14 16 -17 19 -7 3 8 11 2 22 -17 15 -27 16 -28 11 -5 -6
24 -5 24 9 6 9 -11 16 -23 16 -28 0 -7 -31 -11 -56 -7 -4 0 -10 -5 -14 -12 -6
-8 -13 -3 -24 17 -8 16 -15 25 -16 21 0 -5 5 -17 10 -28 8 -14 7 -19 -2 -20
-7 0 -22 -2 -33 -5 -11 -2 -32 -5 -47 -7 -16 -1 -28 -4 -28 -7 0 -3 -8 -6 -18
-7 -12 -1 -25 11 -35 33 -20 42 -21 51 -4 51 6 0 18 2 26 4 7 2 16 -2 19 -10
3 -8 0 -11 -7 -7 -7 5 -8 1 -4 -10 4 -11 8 -13 11 -6 2 7 7 10 12 7 4 -3 6 4
3 15 -8 28 4 25 22 -7 15 -25 14 -16 0 20 -6 13 -1 15 50 18 14 1 25 5 25 10
0 16 19 9 33 -12z m-1051 -26 c21 -19 23 -30 5 -30 -7 0 -18 11 -24 24 -13 27
-7 29 19 6z m1148 -21 c0 -15 -2 -15 -10 -2 -13 20 -13 33 0 25 6 -3 10 -14
10 -23z m-296 -19 c19 -40 18 -42 -14 -48 -14 -3 -28 2 -36 13 -12 15 -12 14
-8 -8 3 -17 -3 -10 -20 20 -27 49 -36 48 -10 -1 8 -17 14 -35 12 -41 -2 -6
-12 5 -22 25 -19 41 -31 49 -21 15 5 -21 5 -21 -9 2 -19 31 -19 37 -3 37 6 0
19 4 28 7 10 5 19 -1 27 -16 l12 -23 -6 23 c-8 33 3 27 25 -15 11 -21 20 -33
20 -28 0 6 -6 21 -14 35 -19 33 -18 35 3 37 13 1 25 -11 36 -34z m321 27 c3
-5 1 -10 -4 -10 -6 0 -11 5 -11 10 0 6 2 10 4 10 3 0 8 -4 11 -10z m-679 -27
c-10 -10 -19 5 -10 18 6 11 8 11 12 0 2 -7 1 -15 -2 -18z m219 -23 c19 -36 20
-61 1 -35 -15 23 -30 65 -22 65 3 0 12 -13 21 -30z m-20 -16 c10 -19 16 -37
12 -40 -3 -3 -15 11 -27 33 -20 35 -22 32 -5 -9 5 -13 2 -15 -15 -11 -25 7
-47 42 -31 52 26 16 48 8 66 -25z m-75 -7 c0 -5 -4 -5 -10 -2 -5 3 -10 14 -10
23 0 15 2 15 10 2 5 -8 10 -19 10 -23z m-30 15 c0 -4 -9 -8 -20 -9 -11 -1 -20
2 -20 5 0 4 9 8 20 9 11 1 20 -2 20 -5z m-106 -28 c9 -22 -3 -32 -14 -14 -12
19 -12 30 -1 30 5 0 12 -7 15 -16z m276 -5 c0 -5 -4 -9 -10 -9 -5 0 -10 7 -10
16 0 8 5 12 10 9 6 -3 10 -10 10 -16z m477 8 c9 -10 -28 -7 -52 3 -16 7 -13 8
13 6 17 -2 35 -6 39 -9z m-776 -21 c7 -14 17 -22 25 -19 8 3 14 0 14 -6 0 -6
7 -8 15 -5 8 4 15 1 15 -6 0 -6 -4 -8 -10 -5 -5 3 -10 1 -10 -6 0 -8 -4 -8
-15 1 -9 7 -15 8 -15 2 0 -20 -31 -5 -51 24 -10 16 -19 25 -19 19 1 -5 7 -19
15 -29 20 -27 19 -42 -2 -25 -11 10 -14 10 -9 2 4 -7 4 -14 -1 -14 -29 -5 -51
-9 -75 -15 -16 -3 -28 -2 -28 2 0 5 -10 20 -21 34 l-21 25 17 -28 c17 -29 17
-29 -7 -22 -12 4 -34 12 -48 18 -14 6 -28 10 -32 9 -5 -1 -8 3 -8 8 0 6 5 11
10 11 6 1 16 2 23 3 6 1 20 -7 30 -18 l18 -21 -10 22 c-14 28 -14 30 7 30 9 0
23 -7 30 -16 10 -14 11 -14 6 4 -5 17 -3 16 16 -5 19 -22 20 -22 11 -3 -15 30
-15 30 16 36 18 3 31 0 40 -11 11 -15 11 -15 7 3 -4 17 0 21 26 23 24 2 33 -3
41 -22z m-544 -68 c-3 -7 -5 -2 -5 12 0 14 2 19 5 13 2 -7 2 -19 0 -25z m329
-10 c3 -4 12 -4 20 -1 8 3 14 0 14 -6 0 -6 -3 -11 -7 -12 -5 0 -17 -2 -28 -4
-18 -4 -34 9 -35 27 0 8 27 5 36 -4z m-290 -11 c3 -8 15 -13 27 -12 12 1 27 0
32 -4 6 -3 13 -6 18 -7 4 -1 9 -3 12 -4 3 -1 10 -3 17 -4 6 0 13 -7 16 -15 3
-8 1 -11 -4 -9 -5 3 -18 2 -29 -2 -13 -5 -24 -2 -33 9 -11 14 -11 14 -5 -3 4
-13 3 -17 -5 -12 -7 4 -12 3 -12 -3 0 -10 -19 -9 -37 2 -9 5 -11 3 -7 -6 7
-19 -27 -18 -46 2 -8 9 -12 12 -7 7 20 -27 0 -42 -30 -23 -9 6 -11 3 -6 -10 3
-10 3 -15 -1 -11 -5 4 -18 3 -31 -2 -20 -8 -25 -5 -35 21 -7 16 -17 32 -22 35
-5 4 -3 -8 6 -24 18 -36 20 -46 6 -37 -5 3 -10 2 -10 -4 0 -11 -19 -9 -39 3
-9 6 -12 5 -8 -1 7 -11 -14 -23 -39 -23 -8 0 -23 15 -34 33 -23 38 -24 43 -7
45 6 0 38 7 69 15 42 10 60 11 69 3 9 -8 10 -8 6 0 -4 7 1 15 10 19 10 3 19 2
21 -3 6 -20 31 -47 32 -34 0 7 5 10 11 6 8 -5 8 -1 0 14 -13 24 -14 35 -3 28
4 -2 14 -1 22 4 8 5 19 5 26 -1 8 -6 14 -5 18 6 7 19 25 20 32 2z m-451 -17
c-11 -5 -32 -9 -47 -9 -15 -1 -30 -6 -33 -12 -5 -7 5 -8 32 -4 35 7 37 6 18
-8 -11 -8 -46 -18 -78 -22 -31 -4 -59 -11 -62 -15 -3 -5 -24 -11 -48 -15 -23
-4 -72 -15 -109 -25 -37 -10 -93 -22 -125 -26 -80 -9 -103 -19 -103 -45 0 -12
-5 -19 -12 -16 -7 2 -12 18 -11 36 1 25 -2 31 -14 27 -8 -3 -23 -6 -33 -6 -11
0 -20 -10 -24 -26 -6 -21 -11 -25 -28 -20 -12 3 -27 1 -32 -3 -7 -5 -16 -3
-24 5 -12 13 -8 14 28 10 30 -4 40 -2 37 7 -2 7 -20 11 -43 10 -21 -1 -34 0
-29 2 24 10 170 46 242 59 85 16 329 70 407 89 60 16 121 20 91 7z m124 7 c-2
-1 -11 -8 -20 -15 -13 -9 -16 -9 -16 3 0 8 9 15 20 15 11 0 18 -1 16 -3z m-68
-30 c-10 -9 -11 -8 -5 6 3 10 9 15 12 12 3 -3 0 -11 -7 -18z m289 2 c0 -6 -4
-7 -10 -4 -5 3 -10 11 -10 16 0 6 5 7 10 4 6 -3 10 -11 10 -16z m-1490 -43 c0
-23 -1 -24 -42 -13 l-42 10 39 13 c22 6 41 12 43 13 1 1 2 -10 2 -23z m1240 3
c0 -5 -4 -7 -10 -4 -5 3 -10 2 -10 -4 0 -16 18 -23 22 -9 3 8 12 0 21 -17 9
-16 16 -25 17 -20 0 6 -7 21 -16 33 -9 13 -14 25 -11 28 4 4 47 -60 47 -70 0
-11 -106 -13 -112 -3 -13 21 -8 30 9 16 15 -13 15 -12 2 8 -9 16 -16 19 -21
10 -6 -9 -8 -8 -8 2 0 8 -3 12 -6 9 -3 -4 -1 -16 6 -27 6 -12 7 -21 2 -21 -7
0 -32 42 -32 55 0 2 9 2 20 0 11 -2 20 1 20 7 0 6 7 5 17 -3 9 -8 14 -9 10 -2
-4 6 -1 14 5 16 21 9 28 8 28 -4z m-1333 -5 c-3 -3 -12 -4 -19 -1 -8 3 -5 6 6
6 11 1 17 -2 13 -5z m3953 -4 c0 -5 -5 -10 -11 -10 -5 0 -7 5 -4 10 3 6 8 10
11 10 2 0 4 -4 4 -10z m-2753 -23 c6 -4 13 -1 15 5 3 8 9 4 17 -10 7 -14 8
-22 1 -22 -5 0 -10 4 -10 9 0 5 -6 9 -12 8 -36 -1 -59 4 -54 12 7 10 25 9 43
-2z m2208 -28 c6 -28 2 -37 -38 -77 -46 -45 -67 -48 -67 -9 0 20 76 116 92
117 3 0 10 -14 13 -31z m-2315 -4 c0 -8 -7 -15 -15 -15 -8 0 -15 5 -15 12 0 6
-3 8 -6 5 -9 -9 16 -38 26 -32 5 3 11 1 15 -4 3 -6 12 -8 20 -4 9 3 15 -1 15
-11 0 -9 -3 -15 -7 -14 -5 1 -29 -2 -55 -6 -26 -5 -51 -8 -55 -8 -5 0 -15 -4
-23 -8 -8 -4 -33 -11 -55 -15 -22 -4 -47 -8 -55 -10 -8 -1 -20 2 -27 7 -7 5
-14 5 -18 -2 -4 -7 -12 -7 -26 0 -10 6 -19 8 -19 4 0 -3 -7 -1 -15 6 -8 7 -15
9 -15 5 0 -4 -6 -2 -13 4 -8 6 -16 8 -19 5 -3 -3 -9 -1 -12 5 -7 11 31 23 153
46 13 2 26 7 29 10 3 2 12 -1 20 -8 10 -8 13 -8 9 -1 -10 16 25 28 35 12 6
-10 8 -10 8 2 1 11 4 10 16 -5 16 -20 16 -19 9 4 -4 13 -3 21 2 18 5 -3 14 -2
21 2 23 14 72 12 72 -4z m-650 -44 c-28 -16 -60 -22 -60 -12 0 8 18 14 65 19
6 1 3 -2 -5 -7z m200 -42 c0 -4 7 -6 15 -3 8 4 15 1 15 -6 0 -6 4 -9 9 -6 5 3
27 -1 49 -8 22 -8 42 -12 45 -10 3 3 8 1 11 -4 3 -5 -17 -14 -45 -19 -38 -8
-49 -7 -46 2 3 6 -1 12 -8 12 -7 0 -11 -6 -8 -14 3 -7 1 -13 -3 -14 -5 0 -16
-2 -24 -4 -42 -11 -88 -19 -112 -19 -16 -1 -28 -5 -28 -10 0 -6 -7 -1 -15 10
-15 19 -15 19 -8 -1 6 -18 5 -18 -10 -6 -15 12 -17 12 -11 -2 6 -16 -10 -18
-33 -4 -9 5 -11 3 -7 -6 2 -7 -1 -14 -8 -15 -7 0 -28 -4 -46 -7 -20 -4 -39 -2
-48 6 -8 6 -14 8 -14 4 0 -4 -8 -1 -17 6 -16 13 -17 12 -4 -3 7 -10 17 -15 22
-12 5 3 9 0 9 -6 0 -7 -8 -9 -20 -5 -11 4 -20 2 -20 -4 0 -6 -13 -11 -30 -11
-16 0 -30 4 -30 8 0 4 -10 9 -22 9 -22 1 -63 10 -63 13 0 1 -11 4 -24 6 -37 7
-38 14 -3 14 18 0 32 -5 32 -11 0 -5 4 -8 9 -5 5 4 21 2 35 -4 14 -5 26 -6 26
-1 0 4 6 8 14 8 8 0 12 -6 9 -14 -3 -9 1 -12 13 -10 20 3 31 21 14 23 -5 1
-12 3 -15 4 -3 1 -9 3 -14 4 -5 0 -13 4 -17 8 -4 4 -13 3 -19 -2 -9 -8 -14 -6
-19 5 -3 8 0 15 7 16 7 0 20 2 30 4 10 2 15 -1 11 -8 -3 -7 1 -4 9 6 13 15 16
16 27 2 7 -9 15 -13 18 -10 3 3 12 -1 21 -8 14 -10 14 -10 3 5 -26 33 21 55
48 23 7 -9 15 -13 18 -10 3 3 15 -3 26 -12 21 -18 21 -18 2 4 -10 13 -22 20
-27 18 -4 -3 -10 -1 -14 4 -3 6 14 15 37 21 24 6 49 13 57 16 8 2 30 7 50 10
20 4 41 7 46 9 6 1 25 6 42 10 18 4 30 11 27 16 -3 5 2 6 10 3 9 -3 16 -10 16
-15z m2410 -49 c0 -5 -4 -10 -10 -10 -5 0 -10 5 -10 10 0 6 5 10 10 10 6 0 10
-4 10 -10z m-2770 -30 c0 -5 -2 -10 -4 -10 -3 0 -8 5 -11 10 -3 6 -1 10 4 10
6 0 11 -4 11 -10z m-335 -30 c-27 -12 -43 -12 -25 0 8 5 22 9 30 9 10 0 8 -3
-5 -9z m-115 -20 c0 -5 -4 -10 -9 -10 -6 0 -13 5 -16 10 -3 6 1 10 9 10 9 0
16 -4 16 -10z m190 -16 c0 -8 -4 -12 -10 -9 -5 3 -10 10 -10 16 0 5 5 9 10 9
6 0 10 -7 10 -16z m-60 -11 c-13 17 -12 19 10 15 13 -1 25 -9 28 -17 3 -9 0
-11 -9 -6 -8 5 -11 4 -6 -1 5 -5 12 -9 15 -9 4 -1 25 -4 47 -9 48 -10 35 -18
-53 -35 -58 -11 -66 -11 -85 6 -20 16 -21 17 -8 0 8 -9 12 -19 10 -21 -9 -9
-46 -9 -84 -1 -22 5 -44 8 -49 7 -5 -2 -6 4 -2 13 4 13 2 14 -14 5 -13 -7 -21
-7 -25 1 -9 14 -6 16 30 23 17 3 62 14 100 24 64 18 72 18 90 3 19 -15 19 -15
5 2z m-333 -35 c-3 -8 -6 -5 -6 6 -1 11 2 17 5 13 3 -3 4 -12 1 -19z m3567
-12 c-6 -21 -6 -21 10 -1 17 20 17 19 10 -5 -6 -22 -5 -23 10 -11 15 12 16 12
10 -5 -6 -15 -4 -17 6 -7 16 15 40 -5 32 -26 -3 -9 -1 -12 6 -7 7 4 12 3 12
-3 0 -6 -8 -15 -19 -20 -10 -6 -21 -17 -24 -26 -5 -12 -3 -13 13 -2 11 6 20
15 20 18 0 4 7 9 15 13 29 11 15 -11 -24 -38 -22 -15 -42 -35 -45 -43 -6 -14
-4 -14 11 -2 10 8 22 20 26 27 4 6 15 12 22 12 8 0 15 5 15 10 0 6 8 10 18 9
13 0 10 -6 -13 -22 -16 -12 -51 -44 -77 -71 -27 -26 -48 -44 -48 -39 0 6 -12
9 -27 7 -28 -4 -28 -4 -3 5 14 5 19 9 13 10 -7 1 -13 5 -13 10 0 6 9 9 19 8
12 -1 17 -6 14 -17 -4 -10 1 -9 16 6 21 19 21 61 0 48 -5 -3 -9 0 -9 6 0 6 -4
9 -9 6 -5 -3 -11 0 -14 7 -3 8 1 14 9 14 8 0 14 -5 14 -10 0 -5 7 -4 15 3 13
11 14 10 8 -6 -6 -17 -5 -17 10 -5 9 7 14 17 11 23 -3 5 0 16 8 25 18 22 19
66 1 51 -9 -7 -13 -7 -13 0 0 11 -38 28 -54 24 -5 -2 -6 5 -2 15 6 17 5 17 -8
0 -12 -15 -14 -15 -19 -3 -6 16 14 33 39 33 10 0 12 -7 8 -21z m-6 -71 c-10
-22 -38 -30 -38 -11 0 6 -5 4 -10 -4 -5 -8 -10 -10 -10 -4 0 13 38 41 56 41 9
0 9 -6 2 -22z m45 -6 c4 -3 1 -12 -8 -19 -13 -11 -14 -10 -8 6 6 17 5 18 -12
4 -17 -14 -18 -14 -6 8 7 13 16 20 19 15 4 -4 11 -10 15 -14z m-3394 -33 c-12
-10 -49 -16 -49 -7 0 5 10 11 23 13 22 4 34 1 26 -6z m-59 -10 c0 -3 -4 -8
-10 -11 -5 -3 -10 -1 -10 4 0 6 5 11 10 11 6 0 10 -2 10 -4z m3560 -16 c0 -6
-8 -14 -17 -17 -10 -4 -22 -11 -28 -15 -29 -24 -62 -56 -75 -73 -14 -20 -14
-20 8 -1 12 11 22 14 22 8 0 -6 -8 -17 -18 -24 -10 -7 -22 -20 -27 -28 -8 -13
-7 -13 8 -1 21 17 22 2 2 -25 -9 -12 -14 -14 -15 -6 0 7 -4 10 -10 7 -5 -3
-10 -1 -10 5 0 7 -8 9 -20 5 -11 -3 -20 -2 -20 3 0 9 29 22 55 26 5 0 10 8 10
17 0 18 49 79 64 79 6 0 11 4 11 9 0 8 30 28 58 40 1 1 2 -4 2 -9z m10 -29 c0
-8 -74 -61 -85 -61 -16 0 0 21 33 43 40 28 52 32 52 18z m20 -24 c0 -11 -37
-37 -60 -42 -3 0 -15 -7 -27 -15 l-22 -14 21 -18 21 -18 -28 -26 c-45 -41 -76
-15 -32 27 12 12 16 19 10 15 -8 -4 -13 -1 -13 7 0 13 105 96 123 97 4 0 7 -6
7 -13z m-10 -41 c0 -3 -14 -14 -31 -26 -36 -27 -54 -17 -19 10 23 18 50 26 50
16z m58 -88 c-2 -6 -15 -13 -27 -15 -20 -3 -22 -1 -11 12 15 18 43 20 38 3z
m-243 -48 c-4 -12 -9 -19 -12 -17 -3 3 -2 15 2 27 4 12 9 19 12 17 3 -3 2 -15
-2 -27z m255 15 c0 -5 -8 -10 -17 -10 -9 0 -18 -6 -21 -13 -3 -9 2 -10 22 -2
17 6 27 6 32 -1 9 -15 -2 -22 -40 -25 -50 -3 -105 -32 -100 -52 3 -11 -6 -23
-26 -34 -34 -19 -41 -7 -9 16 12 8 18 19 15 25 -4 5 7 20 23 32 16 12 28 27
27 33 -2 6 -1 8 1 4 7 -11 31 -10 38 2 3 6 -1 7 -9 4 -9 -3 -16 -1 -16 5 0 13
36 29 62 27 10 -1 18 -5 18 -11z m-219 -10 c5 4 16 2 25 -3 13 -7 10 -14 -18
-48 -26 -31 -39 -38 -61 -36 -27 3 -28 4 -10 17 22 18 37 19 27 3 -4 -6 4 -3
19 8 14 10 28 28 31 39 5 20 5 20 -9 1 -15 -20 -15 -20 -15 0 0 16 -2 17 -10
4 -11 -18 -13 -9 -3 16 4 11 8 13 11 6 2 -7 8 -10 13 -7z m-71 -15 c0 -5 -5
-10 -11 -10 -5 0 -7 5 -4 10 3 6 8 10 11 10 2 0 4 -4 4 -10z m317 -43 c-1 -5
-19 -11 -39 -12 -20 -2 -51 -10 -68 -18 -29 -15 -31 -15 -28 1 2 9 9 18 16 18
6 1 14 3 17 4 3 1 9 3 14 4 5 0 12 3 15 6 10 11 77 8 73 -3z m2 -26 c7 -1 11
-7 7 -16 -3 -8 0 -15 5 -15 6 0 9 -9 6 -20 -3 -11 -1 -20 5 -20 6 0 8 -9 5
-20 -3 -11 -1 -18 3 -15 5 3 11 1 15 -4 9 -16 -18 -51 -40 -52 -20 0 -20 0 0
-8 15 -6 23 -3 31 12 8 14 13 16 19 7 4 -7 2 -16 -5 -20 -8 -5 -7 -9 4 -13 25
-10 19 -29 -6 -22 -18 4 -17 2 5 -10 21 -12 26 -21 22 -36 -4 -11 -2 -19 4
-19 6 0 11 -5 11 -11 0 -6 -9 -8 -22 -4 -19 6 -21 5 -10 -6 16 -18 15 -32 -2
-26 -8 3 -17 -1 -20 -8 -3 -8 -12 -12 -19 -9 -9 3 -17 -3 -20 -16 -3 -12 -10
-19 -16 -15 -6 3 -14 -1 -17 -10 -4 -9 -18 -21 -31 -26 -13 -5 -22 -13 -18
-19 3 -5 -6 -17 -20 -26 -14 -9 -25 -22 -25 -29 0 -8 -14 -23 -30 -35 -17 -12
-28 -25 -26 -29 5 -8 -48 -71 -60 -71 -3 0 -3 8 1 18 5 13 3 14 -6 5 -8 -8
-18 -9 -35 -1 -26 12 -30 23 -12 34 7 4 8 3 4 -4 -4 -7 -2 -12 3 -12 6 0 11 6
12 13 0 6 4 3 9 -8 8 -19 9 -19 9 -1 1 16 3 17 18 5 15 -13 15 -12 5 7 -6 12
-8 25 -4 29 4 5 -1 5 -10 2 -11 -4 -19 0 -23 13 -4 13 -12 17 -23 13 -15 -6
-15 -5 -2 11 8 11 16 14 18 7 2 -6 9 -8 15 -4 7 4 8 0 4 -11 -4 -9 -3 -15 2
-12 15 10 18 52 4 64 -8 8 -13 9 -13 2 0 -5 -4 -10 -10 -10 -5 0 -7 7 -4 15 4
8 1 15 -6 15 -6 0 -8 5 -4 11 4 8 9 7 15 -2 7 -12 9 -12 9 0 0 10 6 7 18 -7
14 -15 22 -18 30 -10 6 6 8 16 6 23 -7 17 14 29 29 17 8 -6 18 -3 30 10 9 10
13 18 8 18 -6 0 -13 -4 -16 -10 -3 -5 -11 -10 -16 -10 -6 0 -7 5 -3 12 4 6 3
8 -3 5 -16 -10 -36 20 -29 40 6 15 8 15 16 3 6 -9 10 -10 10 -3 0 18 -16 24
-27 10 -6 -6 -13 -25 -17 -41 -7 -27 -6 -28 10 -15 16 13 16 12 4 -11 -8 -15
-15 -20 -18 -12 -2 6 -9 9 -15 5 -6 -4 -8 0 -4 10 4 11 2 14 -8 11 -10 -4 -12
0 -8 15 4 17 8 19 19 10 11 -9 14 -8 14 1 0 7 -12 23 -26 35 -22 19 -24 26
-15 41 11 17 11 16 5 -6 -6 -24 -6 -24 10 -5 14 18 15 19 16 2 0 -11 4 -15 12
-11 8 5 9 2 4 -12 -5 -14 1 -11 23 10 34 33 43 50 11 21 -24 -21 -24 -21 -6
30 9 26 24 45 45 56 17 9 28 19 24 22 -3 3 -20 -5 -38 -18 -17 -14 -34 -25
-38 -25 -3 0 2 18 10 40 9 22 20 40 25 40 11 0 10 -17 -2 -25 -5 -3 -10 -10
-10 -15 0 -5 12 2 26 15 14 13 39 27 55 30 16 4 31 11 34 15 6 10 -54 -8 -71
-22 -8 -5 -14 -2 -18 8 -6 15 -8 15 -26 -1 -11 -10 -23 -16 -26 -13 -3 3 9 16
25 28 17 12 31 26 31 32 0 6 -6 6 -15 -2 -12 -10 -15 -10 -15 4 0 9 5 16 11
16 6 0 23 8 37 19 33 23 80 38 107 35 11 -1 26 -3 34 -3z m-289 -59 c0 -13
-12 -22 -22 -16 -10 6 -1 24 13 24 5 0 9 -4 9 -8z m84 -37 c-4 -9 -15 -20 -25
-26 -11 -5 -19 -15 -18 -22 0 -9 2 -9 6 1 2 6 9 12 14 12 4 0 5 -7 2 -17 -4
-11 -3 -14 5 -9 14 8 15 5 6 -18 -3 -9 -10 -16 -16 -16 -5 0 -7 4 -3 9 3 5 -4
12 -15 16 -26 8 -25 14 8 53 29 34 45 42 36 17z m-53 -104 c6 10 9 10 9 2 0
-7 7 -10 16 -6 14 5 15 3 4 -18 -12 -22 -12 -23 3 -10 19 15 22 4 7 -19 -9
-13 -11 -13 -20 0 -5 8 -10 22 -10 30 -1 12 -3 12 -14 -3 -12 -15 -14 -16 -20
-2 -3 8 -2 23 2 33 6 16 7 16 10 -2 3 -15 6 -16 13 -5z m354 -151 c10 -11 15
-23 12 -27 -4 -3 -2 -12 5 -20 6 -7 8 -16 5 -20 -4 -3 -3 -11 3 -18 5 -6 12
-40 15 -74 3 -35 10 -72 16 -82 6 -13 6 -19 -1 -19 -5 0 -10 7 -10 16 0 8 -5
12 -10 9 -6 -4 -8 -12 -4 -18 3 -7 -1 -4 -9 6 -18 21 -27 22 -27 1 0 -14 -3
-14 -15 -4 -12 10 -15 9 -15 -5 0 -11 -5 -15 -15 -11 -9 3 -19 -3 -25 -14 -6
-11 -16 -17 -24 -14 -8 3 -16 -4 -19 -16 -3 -13 -10 -19 -17 -15 -7 4 -14 -2
-17 -15 -3 -12 -16 -26 -29 -31 -14 -5 -24 -17 -24 -29 0 -34 -25 -22 -44 20
-10 22 -22 40 -27 40 -6 0 -8 4 -5 8 3 5 -3 14 -13 21 -15 11 -16 18 -6 47 6
18 19 42 28 52 9 10 17 23 17 29 0 5 9 18 20 28 11 10 20 23 20 30 0 6 11 17
25 23 14 6 25 20 25 29 0 15 2 16 10 3 8 -12 10 -12 10 -1 0 23 41 52 64 45
17 -5 19 -4 9 7 -7 7 -13 18 -13 24 0 5 4 4 9 -3 6 -10 10 -10 21 3 17 20 33
19 55 -5z m-377 -2 c-3 -7 -13 -15 -24 -17 -16 -3 -17 -1 -5 13 16 19 34 21
29 4z"/>
<path d="M5790 5103 c0 -5 25 -35 55 -68 62 -67 74 -62 20 8 -34 44 -75 77
-75 60z"/>
<path d="M6077 5038 c-2 -7 -1 -22 4 -33 6 -16 8 -14 8 13 1 33 -4 41 -12 20z"/>
<path d="M5668 4779 c-10 -5 -18 -19 -18 -31 0 -16 3 -18 13 -9 8 6 17 8 21 4
4 -4 4 1 0 12 -7 18 -6 18 9 6 21 -16 30 -11 21 13 -7 18 -21 20 -46 5z"/>
<path d="M5625 4760 c-3 -5 -1 -10 4 -10 6 0 11 5 11 10 0 6 -2 10 -4 10 -3 0
-8 -4 -11 -10z"/>
<path d="M5420 4809 c0 -27 2 -30 15 -19 11 9 12 17 4 31 -14 27 -19 24 -19
-12z"/>
<path d="M5924 4365 c0 -20 3 -29 7 -23 6 9 14 5 28 -11 12 -13 21 -19 21 -13
0 6 -6 17 -13 24 -7 7 -20 23 -28 35 -15 21 -15 21 -15 -12z"/>
<path d="M5845 4191 c-7 -12 12 -24 25 -16 11 7 4 25 -10 25 -5 0 -11 -4 -15
-9z"/>
<path d="M5877 4143 c-12 -11 -8 -23 8 -23 8 0 15 7 15 15 0 16 -12 20 -23 8z"/>
<path d="M5843 4087 c-7 -7 -19 -18 -28 -25 -20 -17 -19 -25 4 -39 14 -9 28
-9 62 2 36 10 44 17 42 34 -2 11 2 21 8 21 5 0 7 5 4 10 -9 14 -77 12 -92 -3z"/>
<path d="M6268 3363 c7 -3 16 -2 19 1 4 3 -2 6 -13 5 -11 0 -14 -3 -6 -6z"/>
<path d="M6094 3315 c8 -8 22 -12 30 -9 23 9 9 24 -20 24 -23 0 -24 -2 -10
-15z"/>
<path d="M5888 3283 c-10 -2 -18 -9 -18 -14 0 -6 7 -6 19 1 26 13 44 13 35 -1
-4 -7 -2 -10 5 -8 7 3 13 9 14 14 2 11 -29 16 -55 8z"/>
<path d="M5593 3205 c0 -8 4 -15 9 -15 4 0 8 5 8 11 0 6 7 9 15 5 8 -3 15 -1
15 4 0 6 -10 10 -23 10 -14 0 -24 -6 -24 -15z"/>
<path d="M7436 3361 c-3 -5 1 -14 9 -21 8 -7 12 -16 9 -21 -3 -5 -1 -9 5 -9 5
0 13 5 16 10 3 6 1 10 -6 10 -7 0 -10 3 -6 6 3 3 14 1 24 -5 10 -6 12 -11 6
-11 -18 0 -16 -17 2 -24 11 -4 14 1 11 17 -2 12 0 27 5 33 5 7 3 11 -6 11 -8
0 -15 -5 -15 -10 0 -5 -11 -2 -24 7 -14 9 -27 12 -30 7z"/>
<path d="M7590 3312 c0 -5 7 -9 15 -9 8 0 12 4 9 9 -3 4 -9 8 -15 8 -5 0 -9
-4 -9 -8z"/>
<path d="M7686 3270 c12 -12 29 -20 39 -18 13 2 6 8 -21 21 l-39 18 21 -21z"/>
<path d="M7754 3246 c-19 -14 -19 -14 1 -13 11 1 19 -3 18 -9 -1 -6 8 -9 20
-8 12 1 26 3 30 3 5 1 5 6 2 11 -4 6 -12 10 -18 9 -25 -3 -38 1 -32 11 9 14 2
13 -21 -4z"/>
<path d="M5020 3090 l-25 -8 25 -1 c20 -1 22 -3 10 -12 -13 -9 -13 -10 0 -6 8
2 14 10 12 17 -2 9 6 11 28 6 19 -3 29 -2 25 4 -7 12 -39 11 -75 0z"/>
<path d="M5532 3100 c0 -14 2 -19 5 -12 2 6 2 18 0 25 -3 6 -5 1 -5 -13z"/>
<path d="M5411 3034 c0 -11 3 -14 6 -6 3 7 2 16 -1 19 -3 4 -6 -2 -5 -13z"/>
<path d="M4816 2935 c4 -8 8 -15 10 -15 2 0 4 7 4 15 0 8 -4 15 -10 15 -5 0
-7 -7 -4 -15z"/>
<path d="M4701 2884 c0 -11 3 -14 6 -6 3 7 2 16 -1 19 -3 4 -6 -2 -5 -13z"/>
<path d="M3990 2860 c-8 -5 -10 -10 -5 -10 6 0 17 5 25 10 8 5 11 10 5 10 -5
0 -17 -5 -25 -10z"/>
<path d="M3905 2840 c-4 -6 7 -10 27 -10 25 0 29 3 18 10 -19 13 -37 13 -45 0z"/>
<path d="M3796 2821 c-32 -7 -48 -30 -19 -27 10 0 20 4 23 7 3 3 23 11 45 17
36 9 37 10 10 10 -16 0 -43 -3 -59 -7z"/>
<path d="M3318 2713 c7 -3 16 -2 19 1 4 3 -2 6 -13 5 -11 0 -14 -3 -6 -6z"/>
<path d="M3278 2703 c7 -3 16 -2 19 1 4 3 -2 6 -13 5 -11 0 -14 -3 -6 -6z"/>
<path d="M2973 2639 c-18 -5 -33 -11 -33 -12 0 -2 21 -4 46 -5 31 -1 44 2 42
10 -6 16 -18 18 -55 7z"/>
<path d="M2897 2615 c-12 -11 -17 -12 -21 -2 -5 9 -7 9 -12 0 -3 -7 -15 -13
-27 -13 -18 0 -19 -2 -7 -10 9 -5 19 -5 27 1 7 6 17 8 22 4 13 -7 51 12 51 25
0 15 -17 12 -33 -5z"/>
<path d="M2793 2585 c0 -8 4 -12 9 -9 4 3 8 9 8 15 0 5 -4 9 -8 9 -5 0 -9 -7
-9 -15z"/>
<path d="M2390 2510 c-18 -12 -2 -12 25 0 13 6 15 9 5 9 -8 0 -22 -4 -30 -9z"/>
<path d="M1937 2404 c-4 -4 -4 -10 -1 -15 6 -10 34 0 34 12 0 10 -24 12 -33 3z"/>
<path d="M1888 2393 c6 -2 18 -2 25 0 6 3 1 5 -13 5 -14 0 -19 -2 -12 -5z"/>
<path d="M2250 2389 c0 -5 -4 -7 -10 -4 -5 3 -10 2 -10 -4 0 -5 5 -13 10 -16
6 -3 10 -1 10 5 0 6 4 8 10 5 6 -3 7 1 4 9 -7 18 -14 21 -14 5z"/>
<path d="M2300 2398 c0 -4 9 -22 20 -40 11 -18 20 -28 20 -23 0 6 -9 24 -20
40 -11 17 -20 27 -20 23z"/>
<path d="M1841 2374 c0 -11 3 -14 6 -6 3 7 2 16 -1 19 -3 4 -6 -2 -5 -13z"/>
<path d="M3640 2699 c0 -4 7 -22 15 -40 8 -19 14 -27 14 -19 0 14 -28 72 -29
59z"/>
<path d="M3190 2597 c0 -7 7 -22 15 -33 13 -17 14 -16 4 14 -11 33 -19 41 -19
19z"/>
<path d="M3121 2585 c0 -5 6 -21 14 -35 8 -14 14 -20 14 -15 0 6 -6 21 -14 35
-8 14 -14 21 -14 15z"/>
<path d="M3160 2550 c6 -11 13 -20 16 -20 2 0 0 9 -6 20 -6 11 -13 20 -16 20
-2 0 0 -9 6 -20z"/>
<path d="M3096 2527 c3 -10 9 -15 12 -12 3 3 0 11 -7 18 -10 9 -11 8 -5 -6z"/>
<path d="M2981 2555 c0 -5 6 -21 14 -35 8 -14 14 -20 14 -15 0 6 -6 21 -14 35
-8 14 -14 21 -14 15z"/>
<path d="M2800 2501 c0 -6 4 -13 10 -16 6 -3 7 1 4 9 -7 18 -14 21 -14 7z"/>
<path d="M2590 2461 c0 -6 4 -13 10 -16 6 -3 7 1 4 9 -7 18 -14 21 -14 7z"/>
<path d="M2520 2451 c0 -6 4 -13 10 -16 6 -3 7 1 4 9 -7 18 -14 21 -14 7z"/>
<path d="M2500 2441 c0 -6 4 -13 10 -16 6 -3 7 1 4 9 -7 18 -14 21 -14 7z"/>
<path d="M2540 2411 c0 -5 5 -13 10 -16 6 -3 10 -2 10 4 0 5 -4 13 -10 16 -5
3 -10 2 -10 -4z"/>
<path d="M2476 2397 c3 -10 9 -15 12 -12 3 3 0 11 -7 18 -10 9 -11 8 -5 -6z"/>
<path d="M2059 2335 c17 -33 31 -51 31 -40 0 6 -10 21 -21 35 -13 17 -17 18
-10 5z"/>
<path d="M1860 2290 c6 -11 13 -20 16 -20 2 0 0 9 -6 20 -6 11 -13 20 -16 20
-2 0 0 -9 6 -20z"/>
<path d="M1839 2285 c17 -33 31 -51 31 -40 0 6 -10 21 -21 35 -13 17 -17 18
-10 5z"/>
<path d="M1508 2313 c6 -2 18 -2 25 0 6 3 1 5 -13 5 -14 0 -19 -2 -12 -5z"/>
<path d="M1440 2279 c0 -5 5 -7 10 -4 6 3 10 8 10 11 0 2 -4 4 -10 4 -5 0 -10
-5 -10 -11z"/>
<path d="M1315 2270 c-28 -7 -28 -8 -5 -9 14 0 32 4 40 9 17 11 8 11 -35 0z"/>
<path d="M1370 2270 c0 -5 5 -10 10 -10 6 0 10 5 10 10 0 6 -4 10 -10 10 -5 0
-10 -4 -10 -10z"/>
<path d="M1211 2233 c0 -10 3 -13 5 -6 3 7 12 9 20 6 8 -3 14 0 14 6 0 6 -9
11 -20 11 -13 0 -20 -6 -19 -17z"/>
<path d="M1120 2225 c-20 -24 -9 -25 35 -5 l40 19 -31 1 c-17 0 -37 -7 -44
-15z"/>
<path d="M1741 2239 c7 -15 14 -19 17 -11 2 6 9 9 15 5 7 -3 8 -2 4 3 -5 5
-12 9 -15 9 -4 0 -13 4 -20 9 -12 7 -12 4 -1 -15z"/>
<path d="M1370 2201 c0 -6 4 -13 10 -16 6 -3 7 1 4 9 -7 18 -14 21 -14 7z"/>
<path d="M1481 2183 c7 -12 15 -20 18 -17 3 2 -3 12 -13 22 -17 16 -18 16 -5
-5z"/>
<path d="M1337 2173 c6 -16 5 -17 -12 -3 -18 14 -18 14 0 -12 11 -14 22 -22
23 -17 2 5 8 6 14 3 5 -4 2 5 -7 20 -20 30 -27 34 -18 9z"/>
<path d="M1200 2161 c0 -6 4 -13 10 -16 6 -3 7 1 4 9 -7 18 -14 21 -14 7z"/>
<path d="M1227 2157 c3 -4 8 -6 11 -3 3 3 11 1 19 -6 11 -8 12 -7 7 5 -3 9
-14 15 -24 14 -10 -1 -16 -5 -13 -10z"/>
<path d="M990 2111 c0 -7 -5 -9 -12 -5 -7 4 -10 4 -6 0 3 -4 8 -6 11 -4 3 2
15 -6 28 -17 l24 -20 -20 25 c-11 14 -21 27 -22 29 -2 2 -3 -1 -3 -8z"/>
<path d="M1040 2106 c0 -2 8 -10 18 -17 15 -13 16 -12 3 4 -13 16 -21 21 -21
13z"/>
<path d="M894 2086 c-5 -14 -9 -14 -23 -4 -14 12 -15 11 -2 -5 14 -17 16 -17
27 -3 10 15 13 15 24 1 7 -9 15 -13 18 -10 3 3 12 -1 21 -8 14 -11 14 -10 2 6
-8 9 -16 15 -19 12 -3 -3 -14 2 -23 11 -17 16 -19 16 -25 0z"/>
<path d="M370 1966 c0 -2 8 -10 18 -17 15 -13 16 -12 3 4 -13 16 -21 21 -21
13z"/>
<path d="M250 1950 c-9 -6 -10 -10 -3 -10 6 0 15 5 18 10 8 12 4 12 -15 0z"/>
<path d="M345 1940 c10 -11 20 -20 23 -20 3 0 -3 9 -13 20 -10 11 -20 20 -23
20 -3 0 3 -9 13 -20z"/>
<path d="M3676 1624 c-24 -23 -19 -27 9 -8 14 9 25 18 25 20 0 10 -20 3 -34
-12z"/>
<path d="M3793 1458 c-26 -10 -34 -15 -18 -12 36 8 64 12 88 13 9 1 17 5 17 9
0 13 -35 9 -87 -10z"/>
<path d="M3809 1429 c-10 -7 -7 -9 13 -6 33 4 44 12 19 14 -9 1 -24 -3 -32 -8z"/>
<path d="M3744 1406 c-19 -15 -19 -15 0 -12 11 2 22 8 24 14 5 16 0 15 -24 -2z"/>
<path d="M3836 1402 c-3 -4 4 -9 15 -9 23 -2 25 3 4 10 -8 4 -16 3 -19 -1z"/>
<path d="M3794 1358 c-3 -5 -9 -6 -14 -3 -5 3 -12 0 -16 -6 -4 -8 -3 -9 4 -5
7 4 12 1 12 -6 1 -8 4 -7 10 4 6 10 20 15 35 13 14 -1 27 1 30 5 2 3 -10 6
-26 6 -17 0 -32 -3 -35 -8z"/>
<path d="M3870 1362 c0 -5 7 -9 15 -9 8 0 12 4 9 9 -3 4 -9 8 -15 8 -5 0 -9
-4 -9 -8z"/>
<path d="M3818 1323 c7 -3 16 -2 19 1 4 3 -2 6 -13 5 -11 0 -14 -3 -6 -6z"/>
<path d="M3752 1303 c-18 -8 -31 -17 -29 -19 2 -2 21 5 43 16 21 10 35 19 29
19 -5 0 -25 -7 -43 -16z"/>
<path d="M3880 1290 c8 -5 20 -10 25 -10 6 0 3 5 -5 10 -8 5 -19 10 -25 10 -5
0 -3 -5 5 -10z"/>
<path d="M3750 1270 c-8 -5 -12 -12 -9 -15 4 -3 12 1 19 10 14 17 11 19 -10 5z"/>
<path d="M3890 1219 c0 -5 5 -7 10 -4 6 3 10 8 10 11 0 2 -4 4 -10 4 -5 0 -10
-5 -10 -11z"/>
<path d="M3706 1204 c-6 -15 -4 -15 11 -3 10 7 20 15 22 16 2 2 -3 3 -11 3 -9
0 -19 -7 -22 -16z"/>
<path d="M3752 1204 c-14 -16 -5 -18 17 -5 7 5 9 11 5 14 -5 3 -15 -1 -22 -9z"/>
<path d="M3711 1163 c-1 -24 13 -31 25 -11 4 6 3 8 -4 4 -6 -3 -13 2 -15 11
-4 14 -5 13 -6 -4z"/>
<path d="M3760 1170 c-9 -6 -10 -10 -3 -10 6 0 15 5 18 10 8 12 4 12 -15 0z"/>
<path d="M3720 1080 c-9 -6 -10 -10 -3 -10 6 0 15 5 18 10 8 12 4 12 -15 0z"/>
<path d="M3660 1031 c-13 -25 -13 -54 0 -46 6 3 10 1 10 -4 0 -6 7 -11 15 -11
8 0 15 5 15 12 0 6 -3 9 -6 5 -4 -3 -13 1 -22 9 -13 14 -13 17 3 32 17 16 17
16 12 0 -4 -12 -2 -15 8 -12 17 7 8 34 -11 34 -7 0 -18 -9 -24 -19z"/>
<path d="M3675 939 c-4 -6 -5 -12 -2 -15 2 -3 7 2 10 11 7 17 1 20 -8 4z"/>
<path d="M3940 1140 c0 -5 5 -10 11 -10 5 0 7 5 4 10 -3 6 -8 10 -11 10 -2 0
-4 -4 -4 -10z"/>
<path d="M3960 1096 c0 -2 7 -9 15 -16 9 -7 15 -8 15 -2 0 5 -7 12 -15 16 -8
3 -15 4 -15 2z"/>
<path d="M3906 1052 c-3 -5 1 -9 9 -9 8 0 12 4 9 9 -3 4 -7 8 -9 8 -2 0 -6 -4
-9 -8z"/>
<path d="M6156 5803 c-3 -3 3 -12 13 -19 13 -9 17 -21 13 -39 -3 -19 -7 -23
-17 -15 -9 7 -15 7 -19 1 -4 -5 1 -14 9 -19 19 -10 23 -28 24 -95 1 -31 5 -46
12 -42 6 4 8 14 4 24 -5 12 -3 13 5 5 15 -15 4 -54 -15 -54 -8 0 -17 5 -21 12
-5 7 -10 4 -15 -10 -9 -25 -2 -52 13 -52 6 0 5 7 -2 15 -17 21 -6 30 13 10 9
-8 20 -15 26 -15 6 0 11 -7 11 -16 0 -10 6 -14 14 -11 10 4 13 1 9 -8 -3 -8
-9 -12 -14 -9 -16 9 -33 -7 -18 -18 10 -7 11 -11 3 -14 -7 -3 -10 -14 -7 -24
6 -21 18 -26 28 -10 3 5 12 7 20 3 12 -4 15 8 16 68 3 123 0 173 -10 204 -7
23 -9 11 -6 -52 2 -49 -1 -85 -7 -89 -5 -3 -8 2 -7 12 4 27 -11 83 -32 126
-11 21 -19 41 -19 45 1 16 40 -42 40 -59 0 -9 5 -20 10 -23 14 -8 13 -2 -6 45
-9 22 -21 40 -26 40 -6 0 -8 10 -5 22 6 22 -25 73 -37 61z"/>
<path d="M6200 5794 c0 -13 18 -39 24 -34 2 3 -2 14 -10 24 -8 11 -14 16 -14
10z"/>
<path d="M6115 5740 c3 -5 8 -10 11 -10 2 0 4 5 4 10 0 6 -5 10 -11 10 -5 0
-7 -4 -4 -10z"/>
<path d="M6216 5735 c4 -8 11 -15 16 -15 6 0 5 6 -2 15 -7 8 -14 15 -16 15 -2
0 -1 -7 2 -15z"/>
<path d="M6100 5661 c0 -6 4 -13 10 -16 6 -3 7 1 4 9 -7 18 -14 21 -14 7z"/>
<path d="M6140 5662 c0 -18 12 -42 21 -42 14 0 11 20 -6 36 -8 9 -15 11 -15 6z"/>
<path d="M5380 5651 c0 -5 5 -13 10 -16 6 -3 10 -2 10 4 0 5 -4 13 -10 16 -5
3 -10 2 -10 -4z"/>
<path d="M6176 5485 c-3 -9 0 -15 9 -15 16 0 20 16 6 24 -5 3 -11 -1 -15 -9z"/>
<path d="M6217 5369 c-23 -14 -63 -77 -69 -111 -3 -18 0 -32 11 -41 31 -26 39
-28 34 -6 -3 11 -12 23 -19 26 -22 8 -16 28 18 62 21 20 42 31 61 31 24 0 28
4 25 23 -3 25 -33 33 -61 16z"/>
<path d="M7028 5079 c-21 -12 -18 -66 3 -80 9 -5 9 -9 3 -9 -22 0 -23 -30 -2
-50 18 -17 20 -22 8 -33 -10 -10 -12 -9 -7 6 4 9 2 17 -3 17 -14 0 -13 -37 1
-46 6 -3 16 -1 22 5 15 15 18 101 5 101 -6 0 -5 7 2 15 10 13 9 15 -11 15 -21
1 -22 2 -6 11 9 5 17 14 17 19 0 5 -8 7 -17 4 -17 -5 -17 -5 0 9 29 24 19 36
-15 16z m22 -109 c0 -5 -5 -10 -11 -10 -5 0 -7 5 -4 10 3 6 8 10 11 10 2 0 4
-4 4 -10z"/>
<path d="M3665 4868 c-11 -7 -24 -13 -30 -14 -5 0 -16 -2 -22 -2 -10 -2 -13
-35 -13 -132 0 -108 3 -130 15 -130 20 0 35 32 29 65 -4 24 -2 27 17 22 51
-14 99 44 99 120 0 69 -43 101 -95 71z m51 -60 c7 -22 -2 -67 -18 -85 -31 -38
-66 16 -48 73 16 47 52 54 66 12z"/>
<path d="M7050 4866 c0 -8 -7 -16 -15 -20 -23 -8 -19 -46 4 -46 28 0 37 20 9
21 l-23 0 23 11 c22 11 31 48 12 48 -5 0 -10 -6 -10 -14z"/>
<path d="M3260 4704 c0 -124 2 -135 18 -132 11 2 18 14 20 38 5 51 17 56 40
16 16 -26 25 -33 41 -29 27 7 26 15 -4 63 -14 22 -25 45 -25 51 0 7 11 27 25
45 30 40 31 44 4 37 -11 -3 -34 -24 -50 -46 l-29 -40 0 66 c0 60 -2 67 -20 67
-19 0 -20 -7 -20 -136z"/>
<path d="M3543 4833 c-8 -3 -13 -25 -13 -58 0 -69 -14 -105 -40 -105 -18 0
-20 6 -20 71 0 67 -1 70 -22 67 -20 -3 -23 -10 -26 -60 -4 -83 8 -122 40 -126
17 -2 34 4 47 17 12 12 21 15 23 9 3 -7 12 -9 21 -5 14 5 17 21 17 102 0 52
-3 95 -7 94 -5 0 -14 -3 -20 -6z"/>
<path d="M7043 4793 c-29 -6 -33 -53 -5 -53 28 0 56 25 49 44 -4 9 -10 15 -14
15 -4 -1 -18 -4 -30 -6z"/>
<path d="M3119 4712 c-27 -24 -33 -37 -37 -84 -4 -47 -1 -59 17 -77 11 -11 30
-21 41 -21 24 0 76 47 85 78 10 33 -15 28 -46 -10 -23 -28 -29 -30 -43 -19
-22 18 -20 74 3 102 18 22 21 23 38 8 17 -15 53 -15 53 0 0 3 -7 17 -16 29
-21 30 -57 28 -95 -6z"/>
<path d="M2831 4721 c-21 -6 -27 -18 -45 -93 -12 -48 -24 -89 -27 -93 -4 -3
-15 27 -24 67 -10 40 -19 76 -22 80 -2 4 -17 2 -33 -4 l-30 -10 -1 -101 c-1
-56 -3 -115 -5 -130 -2 -24 0 -28 19 -25 20 3 22 10 27 88 l5 85 19 -70 c10
-38 22 -74 27 -79 16 -18 37 16 54 87 25 103 38 108 33 15 -3 -75 -3 -78 19
-78 23 0 23 1 23 135 0 74 -3 135 -7 134 -5 -1 -19 -4 -32 -8z"/>
<path d="M7015 4720 c-17 -7 -16 -9 10 -10 18 -2 23 -4 13 -7 -19 -5 -25 -43
-7 -43 6 0 7 -5 2 -12 -11 -18 -11 -31 0 -45 7 -9 5 -13 -7 -13 -9 0 -16 -4
-16 -10 0 -5 5 -10 11 -10 5 0 7 -5 4 -10 -11 -18 26 -23 43 -6 14 13 14 20 5
36 -7 10 -9 21 -5 24 7 4 8 81 2 96 -1 3 -2 8 -1 13 1 9 -29 8 -54 -3z m45
-150 c0 -5 -4 -10 -10 -10 -5 0 -10 5 -10 10 0 6 5 10 10 10 6 0 10 -4 10 -10z"/>
<path d="M2937 4662 c-18 -18 -29 -44 -33 -75 -18 -133 128 -131 150 2 14 91
-57 135 -117 73z m71 -60 c3 -47 -10 -72 -38 -72 -32 0 -41 60 -14 98 25 36
48 24 52 -26z"/>
<path d="M2508 4632 c-14 -3 -18 -13 -18 -46 0 -40 -2 -43 -24 -39 -57 11
-109 -105 -75 -166 17 -30 60 -39 80 -18 7 8 21 12 31 9 26 -6 29 11 26 144
-3 107 -5 119 -20 116z m-20 -156 c5 -41 -5 -73 -25 -80 -38 -15 -58 61 -26
96 23 26 47 19 51 -16z"/>
<path d="M7724 4555 c0 -49 1 -71 3 -48 2 23 2 64 0 90 -2 26 -3 8 -3 -42z"/>
<path d="M2344 4511 c-13 -11 -25 -16 -30 -11 -20 20 -31 -10 -37 -97 -4 -68
-3 -93 6 -93 25 0 32 17 35 75 3 50 8 64 29 81 16 14 24 29 21 43 l-3 22 -21
-20z"/>
<path d="M7043 4510 c3 -11 1 -20 -4 -20 -5 0 -9 -9 -9 -20 0 -12 7 -20 18
-20 16 -1 16 -1 0 -11 -12 -6 -18 -22 -18 -44 0 -29 4 -35 23 -36 l22 0 -23
-10 c-13 -5 -21 -13 -17 -18 3 -6 13 -7 22 -4 11 4 14 3 9 -5 -4 -7 -14 -12
-22 -12 -8 0 -13 -4 -10 -9 4 -5 0 -12 -6 -14 -10 -4 -10 -8 1 -15 7 -5 11
-15 7 -21 -4 -6 -2 -19 4 -30 7 -14 7 -22 -1 -26 -6 -4 -7 -14 -3 -24 3 -9 6
-38 5 -64 -2 -45 0 -48 20 -45 12 2 24 8 26 15 3 7 -4 10 -19 7 l-23 -5 23 12
c28 15 29 33 1 24 -15 -5 -19 -4 -15 4 4 6 14 11 22 11 8 0 14 5 14 10 0 6 -5
10 -10 10 -6 0 -5 8 2 20 10 15 10 22 0 32 -8 8 -9 15 -1 25 16 18 3 44 -18
37 -11 -3 -9 0 5 8 16 10 19 17 11 25 -6 6 -7 13 -2 16 13 8 3 67 -11 68 -6 0
0 5 14 10 19 8 21 12 11 19 -9 5 -14 24 -13 49 1 23 -3 41 -8 41 -6 0 -10 7
-10 15 0 8 -5 15 -11 15 -6 0 -9 -9 -6 -20z m24 -96 c-3 -3 -12 -4 -19 -1 -8
3 -5 6 6 6 11 1 17 -2 13 -5z m3 -174 c0 -5 -4 -10 -10 -10 -5 0 -10 5 -10 10
0 6 5 10 10 10 6 0 10 -4 10 -10z m0 -60 c0 -5 -4 -10 -10 -10 -5 0 -10 5 -10
10 0 6 5 10 10 10 6 0 10 -4 10 -10z"/>
<path d="M2154 4462 c-12 -9 -27 -27 -33 -39 -10 -20 -9 -23 7 -23 11 0 26 10
34 22 9 14 20 19 31 15 20 -8 12 -34 -13 -42 -38 -12 -70 -46 -70 -75 0 -40
23 -57 58 -39 28 14 36 16 65 18 14 1 17 11 17 72 0 39 -5 79 -10 90 -13 24
-57 25 -86 1z m56 -100 c0 -16 -32 -52 -46 -52 -20 0 -18 37 4 49 21 12 42 14
42 3z"/>
<path d="M1776 4403 c-3 -21 -6 -80 -6 -130 0 -74 3 -93 14 -93 8 0 18 5 21
10 3 6 17 7 30 4 54 -13 104 98 73 163 -14 30 -52 43 -71 24 -19 -19 -26 -12
-22 24 4 29 2 35 -14 35 -14 0 -20 -10 -25 -37z m97 -74 c14 -22 0 -86 -21
-94 -36 -14 -55 52 -26 93 17 25 32 25 47 1z"/>
<path d="M1997 4423 c-82 -43 -72 -208 11 -188 37 8 70 52 78 102 11 73 -34
116 -89 86z m48 -52 c15 -49 -22 -114 -52 -90 -16 14 -17 81 -1 97 18 18 46
14 53 -7z"/>
<path d="M1718 4419 c-16 -9 -18 -26 -18 -134 0 -106 2 -125 15 -125 23 0 26
16 23 147 -3 113 -4 121 -20 112z"/>
<path d="M1648 4402 c-16 -3 -18 -18 -18 -133 0 -71 3 -129 8 -129 28 1 33 20
30 141 -3 112 -5 124 -20 121z"/>
<path d="M7734 4290 c0 -69 1 -97 3 -62 2 34 2 90 0 125 -2 34 -3 6 -3 -63z"/>
<path d="M1573 4383 c-21 -8 -15 -43 7 -43 15 0 20 7 20 25 0 25 -4 28 -27 18z"/>
<path d="M1425 4342 l-50 -17 -3 -127 -3 -126 49 12 c61 17 89 32 102 56 13
24 13 83 0 96 -8 8 -8 19 0 38 14 37 13 52 -6 70 -19 19 -25 19 -89 -2z m59
-47 c6 -18 -27 -55 -49 -55 -19 0 -21 56 -2 63 24 10 45 7 51 -8z m4 -111 c3
-24 -12 -40 -51 -49 -25 -7 -27 -5 -27 23 0 50 71 73 78 26z"/>
<path d="M1578 4312 c-16 -3 -18 -16 -18 -98 0 -52 3 -94 8 -94 27 1 33 20 30
106 -3 79 -5 89 -20 86z"/>
<path d="M1948 3822 c-28 -3 -31 -9 -30 -64 0 -22 -5 -29 -24 -34 -33 -8 -41
2 -21 24 25 28 22 62 -6 62 -38 0 -66 -28 -73 -71 -4 -22 -11 -42 -15 -45 -12
-7 -11 -64 1 -64 6 0 10 -40 10 -100 0 -92 2 -100 19 -100 49 0 51 6 51 121
l0 109 25 0 c25 0 25 -1 25 -87 0 -109 6 -120 57 -107 31 7 39 14 41 37 2 18
-2 29 -12 33 -23 9 -23 142 -1 150 18 7 20 61 3 66 -7 3 -11 18 -10 36 3 35
-2 39 -40 34z"/>
<path d="M1595 3728 c-16 -6 -31 -12 -33 -13 -12 -10 -92 -243 -92 -267 0 -29
2 -30 33 -25 17 3 39 7 47 9 11 2 16 -7 18 -30 3 -25 7 -32 19 -28 8 3 21 6
29 6 9 0 14 11 14 35 0 22 6 38 15 41 17 7 21 64 5 64 -6 0 -10 43 -10 110 0
61 -3 110 -7 109 -5 0 -21 -5 -38 -11z m-23 -178 c-3 -41 -7 -50 -23 -50 -10
0 -19 1 -19 3 0 13 33 97 38 97 4 0 5 -22 4 -50z"/>
<path d="M1387 3681 c-10 -4 -24 -18 -30 -31 -7 -14 -25 -31 -40 -38 -37 -18
-39 -62 -2 -62 l25 0 0 -116 0 -116 32 6 c17 3 33 8 35 10 2 2 2 82 1 178 -3
164 -4 175 -21 169z"/>
<path d="M3120 3649 c0 -6 -7 -9 -15 -5 -26 10 -45 -5 -45 -35 0 -20 -5 -29
-16 -29 -14 0 -15 2 -3 17 10 11 10 14 2 9 -7 -4 -13 -2 -13 3 0 6 5 11 10 11
6 0 10 4 10 10 0 23 -30 -5 -31 -29 l-1 -26 -8 25 c-4 14 -8 19 -9 11 -1 -9
-9 -11 -26 -7 -18 5 -27 2 -32 -10 -5 -13 -7 -13 -14 -2 -7 11 -9 11 -9 -1 0
-11 -3 -11 -17 0 -15 12 -16 12 -10 -4 4 -10 7 -25 7 -33 0 -20 18 -17 23 4 4
16 5 16 6 -1 1 -25 21 -11 22 16 1 20 2 20 9 -3 5 -17 8 -19 9 -7 1 17 31 25
31 8 0 -15 49 -5 70 14 13 11 20 14 20 6 0 -7 4 -10 9 -7 5 3 7 15 4 26 -3 12
0 20 6 20 7 0 11 -8 9 -17 -2 -11 5 -19 17 -21 17 -2 17 -1 5 7 -13 10 -13 12
0 21 12 8 12 10 1 10 -11 0 -11 3 -1 15 10 12 10 15 -4 15 -9 0 -16 -5 -16
-11z"/>
<path d="M7691 3651 c-9 -6 -6 -8 13 -8 14 0 23 3 20 8 -7 11 -15 11 -33 0z"/>
<path d="M3486 3623 c-5 -11 -1 -22 10 -30 17 -12 17 -13 -1 -13 -14 0 -16 -3
-8 -11 8 -8 16 -7 31 2 21 13 14 29 -18 42 -12 4 -11 6 3 6 10 1 15 6 12 11
-9 15 -22 12 -29 -7z"/>
<path d="M3532 3620 c0 -14 2 -19 5 -12 2 6 2 18 0 25 -3 6 -5 1 -5 -13z"/>
<path d="M7633 3633 c9 -2 23 -2 30 0 6 3 -1 5 -18 5 -16 0 -22 -2 -12 -5z"/>
<path d="M3435 3614 c-26 -11 -27 -19 -2 -15 4 1 7 -4 6 -11 -3 -28 2 -37 17
-31 13 5 13 7 2 14 -11 7 -10 11 2 19 13 9 13 10 0 10 -13 0 -13 1 0 10 24 15
7 18 -25 4z"/>
<path d="M7555 3623 c-16 -3 -34 -9 -40 -15 -12 -12 50 -1 75 13 16 9 14 9
-35 2z"/>
<path d="M3362 3570 c0 -19 2 -27 5 -17 2 9 2 25 0 35 -3 9 -5 1 -5 -18z"/>
<path d="M3381 3568 c1 -18 3 -25 6 -15 5 18 23 24 23 6 0 -5 4 -8 10 -4 5 3
7 12 4 20 -4 8 -10 12 -15 9 -5 -3 -9 0 -9 5 0 6 -4 11 -10 11 -5 0 -9 -15 -9
-32z"/>
<path d="M7466 3583 c-4 -9 -4 -18 -1 -21 3 -3 5 0 5 6 0 6 8 12 18 14 15 3
16 4 0 10 -10 4 -19 1 -22 -9z"/>
<path d="M985 3576 c-45 -20 -67 -50 -72 -99 -4 -32 -1 -48 12 -60 15 -15 15
-19 2 -32 -30 -30 -33 -118 -5 -152 14 -18 63 -16 99 3 53 27 79 135 43 175
-15 16 -15 20 0 41 23 32 21 93 -4 118 -23 23 -34 24 -75 6z m23 -93 c-4 -52
-28 -56 -28 -4 0 30 4 41 16 41 11 0 14 -9 12 -37z m2 -140 c0 -44 -13 -69
-29 -59 -12 8 -15 54 -5 80 12 32 34 18 34 -21z"/>
<path d="M3293 3574 c-4 -10 -8 -12 -13 -4 -8 12 -40 3 -40 -12 0 -6 6 -6 14
1 11 10 16 6 24 -16 l10 -28 7 28 c4 15 11 27 17 27 5 0 7 -9 3 -19 -7 -23 5
-33 25 -20 10 6 11 9 3 9 -7 0 -13 11 -13 25 0 28 -27 35 -37 9z"/>
<path d="M2810 3569 c0 -5 -4 -8 -10 -4 -5 3 -21 3 -35 -1 -18 -4 -25 -13 -25
-30 0 -30 -17 -31 -23 -1 -4 15 -5 12 -4 -8 1 -19 7 -30 17 -30 8 0 18 13 21
30 l7 30 1 -30 1 -30 24 28 c15 17 30 26 37 22 8 -6 8 -10 -2 -16 -18 -11 -6
-21 15 -13 21 8 21 30 -1 39 -17 7 -16 8 2 15 19 8 19 9 -2 9 -13 1 -23 -4
-23 -10z"/>
<path d="M1233 3558 c-24 -6 -33 -15 -38 -38 -8 -37 -21 -39 -29 -5 -6 22 -10
24 -34 19 -15 -4 -29 -8 -31 -10 -2 -2 6 -30 18 -63 l21 -59 -25 -67 c-31 -82
-31 -85 -2 -78 33 8 45 21 52 54 8 38 21 37 29 -1 5 -27 8 -30 33 -24 16 4 30
9 33 11 2 2 -6 32 -18 67 l-23 63 26 68 c14 38 24 69 23 70 -2 1 -17 -2 -35
-7z"/>
<path d="M3170 3539 c0 -10 5 -19 10 -19 6 0 10 -5 10 -11 0 -5 -4 -7 -10 -4
-5 3 -10 1 -10 -4 0 -14 27 -14 35 -1 4 6 11 8 16 5 5 -4 9 2 9 12 0 15 2 16
10 3 5 -8 12 -11 16 -7 13 13 -26 44 -56 45 -23 0 -30 -4 -30 -19z m50 1 c0
-13 -12 -19 -26 -13 -8 3 -12 8 -9 12 5 10 35 10 35 1z"/>
<path d="M2685 3540 c-4 -6 -11 -8 -16 -5 -5 4 -9 -9 -8 -27 0 -18 3 -27 6
-20 3 9 9 10 17 3 10 -8 12 -2 12 24 -1 38 -2 40 -11 25z"/>
<path d="M3115 3540 c-3 -5 -16 -10 -29 -10 -12 0 -26 -3 -30 -7 -4 -4 -17 -8
-29 -8 -15 0 -23 -7 -25 -24 -5 -31 12 -48 32 -32 8 7 20 10 26 6 6 -4 17 -2
24 4 7 6 21 9 30 5 23 -9 34 26 12 42 -16 12 -16 12 1 16 12 2 14 6 6 11 -6 4
-14 3 -18 -3z m-1 -35 c15 -11 16 -15 5 -15 -8 0 -24 7 -35 15 -14 11 -15 14
-4 14 8 0 24 -6 34 -14z m-82 -30 c-12 -22 -27 -2 -18 22 5 12 10 13 17 6 7
-7 8 -17 1 -28z m48 9 c0 -2 -7 -4 -15 -4 -8 0 -15 4 -15 10 0 5 7 7 15 4 8
-4 15 -8 15 -10z"/>
<path d="M821 3531 c-46 -13 -141 -301 -98 -301 6 0 27 4 45 9 32 10 32 9 32
-25 0 -32 2 -35 23 -29 32 10 40 20 40 50 0 15 6 29 13 32 16 6 19 63 4 63 -6
0 -10 42 -10 105 0 111 0 110 -49 96z m-19 -213 c-6 -6 -17 -8 -25 -6 -12 2
-11 11 7 58 l21 55 3 -49 c2 -27 -1 -53 -6 -58z"/>
<path d="M2621 3527 c-7 -7 -24 -12 -39 -12 -21 0 -28 -5 -30 -24 -5 -34 13
-48 36 -28 12 11 22 13 29 6 7 -7 14 -5 23 6 11 13 10 14 -4 9 -11 -4 -16 -1
-16 14 0 12 8 22 18 24 10 2 13 6 6 10 -6 4 -16 2 -23 -5z m-31 -37 c0 -11 -7
-20 -15 -20 -15 0 -21 21 -8 33 12 13 23 7 23 -13z"/>
<path d="M7058 3533 c6 -2 18 -2 25 0 6 3 1 5 -13 5 -14 0 -19 -2 -12 -5z"/>
<path d="M7008 3523 c7 -3 16 -2 19 1 4 3 -2 6 -13 5 -11 0 -14 -3 -6 -6z"/>
<path d="M2520 3488 c-7 -18 -9 -19 -9 -5 -1 9 -5 17 -11 17 -5 0 -10 -15 -9
-32 0 -18 3 -27 6 -19 5 11 7 11 14 0 7 -11 9 -11 9 -1 0 7 5 10 10 7 6 -4 10
7 10 24 0 37 -7 40 -20 9z"/>
<path d="M2957 3504 c-4 -4 -7 -21 -7 -38 0 -24 3 -28 10 -16 9 13 11 13 20 0
8 -13 10 -13 10 2 0 9 -8 22 -17 28 -17 11 -17 11 0 6 12 -4 17 -2 15 6 -5 14
-22 21 -31 12z"/>
<path d="M2902 3488 c-17 -17 -15 -48 4 -55 8 -3 21 0 27 7 9 10 8 12 -5 7
-10 -3 -19 0 -22 10 -4 9 1 17 14 20 11 3 17 9 14 14 -7 12 -18 11 -32 -3z"/>
<path d="M2420 3455 c0 -29 3 -36 18 -33 11 2 17 13 17 33 0 20 -6 31 -17 33
-15 3 -18 -4 -18 -33z m30 1 c0 -8 -4 -18 -10 -21 -5 -3 -10 3 -10 14 0 12 5
21 10 21 6 0 10 -6 10 -14z"/>
<path d="M2376 3468 c-3 -7 -7 -22 -9 -33 -5 -19 -5 -19 -12 3 -4 12 -12 22
-17 22 -6 0 -8 -7 -4 -15 3 -8 1 -15 -4 -15 -6 0 -10 -6 -10 -14 0 -15 53 -13
58 3 2 5 9 8 16 5 8 -3 12 5 11 22 0 29 -22 45 -29 22z m24 -12 c0 -3 -4 -8
-10 -11 -5 -3 -10 -1 -10 4 0 6 5 11 10 11 6 0 10 -2 10 -4z"/>
<path d="M2851 3449 c-14 -41 -14 -44 4 -29 8 6 19 9 26 5 8 -5 9 0 4 16 -12
40 -22 42 -34 8z"/>
<path d="M2795 3465 c-5 -2 -23 -6 -38 -10 -21 -4 -26 -9 -19 -18 5 -7 12 -21
15 -32 4 -16 5 -14 6 7 1 35 21 48 21 14 0 -21 5 -26 23 -25 17 1 18 2 4 6
-14 4 -16 8 -6 19 9 11 9 14 -2 14 -8 0 -5 6 7 15 18 13 13 18 -11 10z"/>
<path d="M2266 3428 c-13 -18 -16 -19 -16 -5 0 9 -7 17 -15 17 -10 0 -15 -10
-15 -30 0 -20 -5 -30 -15 -30 -8 0 -15 9 -15 20 0 11 -4 20 -10 20 -5 0 -10
-11 -10 -25 0 -14 -4 -25 -10 -25 -5 0 -10 9 -10 20 0 11 -4 20 -8 20 -10 0
-10 -45 -1 -54 3 -3 30 1 60 10 30 8 61 15 69 16 24 1 40 19 40 44 0 30 -24
31 -44 2z m34 -8 c0 -11 -4 -20 -10 -20 -5 0 -10 9 -10 20 0 11 5 20 10 20 6
0 10 -9 10 -20z"/>
<path d="M2692 3408 l-10 -33 -2 30 c-1 26 -3 27 -10 10 -7 -18 -8 -19 -15 -3
-4 10 -11 15 -16 12 -5 -3 -7 -10 -3 -15 3 -6 -4 -5 -15 3 -18 11 -23 11 -31
-2 -21 -32 -2 -76 22 -52 6 6 17 8 26 4 11 -4 14 -1 9 11 -3 9 -2 17 2 17 5 0
11 -6 14 -12 3 -10 9 -10 26 0 12 7 26 10 31 7 11 -7 12 1 4 33 -9 31 -19 28
-32 -10z m-80 -33 c-12 -22 -27 -2 -18 22 5 12 10 13 17 6 7 -7 8 -17 1 -28z"/>
<path d="M2536 3395 c-3 -9 1 -18 9 -21 23 -9 18 -21 -11 -28 -31 -8 -45 1
-24 14 13 9 13 10 0 10 -13 0 -13 1 0 10 8 5 11 12 8 15 -13 13 -28 -7 -28
-37 0 -29 2 -30 31 -24 17 3 35 6 40 6 14 0 11 38 -3 43 -10 4 -10 6 0 6 17 1
15 21 -2 21 -8 0 -17 -7 -20 -15z"/>
<path d="M2070 3365 c0 -33 1 -34 25 -23 25 11 34 28 15 28 -5 0 -10 5 -10 11
0 5 5 7 10 4 6 -3 10 -1 10 4 0 6 -11 11 -25 11 -22 0 -25 -4 -25 -35z"/>
<path d="M2026 3377 c-6 -12 -12 -15 -20 -8 -19 16 -89 -6 -82 -26 3 -8 6 -21
6 -29 0 -9 5 -12 11 -9 6 4 8 13 6 19 -3 7 -1 19 4 27 6 10 9 6 9 -14 0 -16 4
-26 10 -22 6 3 10 15 10 26 0 10 4 19 9 19 5 0 7 -9 4 -20 -3 -11 0 -20 6 -20
6 0 11 8 11 18 0 14 2 15 10 2 13 -21 22 -7 18 27 -4 23 -6 25 -12 10z"/>
<path d="M2453 3383 c-8 -3 -13 -20 -12 -41 1 -20 3 -29 6 -19 5 20 19 22 26
5 3 -7 6 1 6 19 1 34 -6 43 -26 36z m17 -17 c0 -3 -4 -8 -10 -11 -5 -3 -10 -1
-10 4 0 6 5 11 10 11 6 0 10 -2 10 -4z"/>
<path d="M2377 3363 c-4 -3 -7 -15 -7 -25 0 -11 -4 -16 -10 -13 -5 3 -10 -1
-10 -9 0 -9 -4 -16 -10 -16 -16 0 -12 30 5 36 19 8 19 24 0 24 -17 0 -32 -47
-19 -60 12 -12 84 -1 84 12 0 5 -4 6 -10 3 -5 -3 -10 -1 -10 4 0 6 6 11 13 11
8 0 7 4 -3 10 -13 9 -13 11 0 20 13 8 13 10 -1 10 -9 0 -19 -3 -22 -7z"/>
<path d="M1890 3347 c0 -23 11 -47 21 -47 14 0 10 30 -6 46 -13 14 -15 14 -15
1z"/>
<path d="M1869 3345 c-9 -8 2 -55 12 -55 10 0 11 17 0 43 -3 10 -9 15 -12 12z"/>
<path d="M1810 3329 c0 -6 -9 -8 -20 -4 -13 4 -22 1 -26 -9 -3 -9 -10 -13 -15
-10 -5 3 -4 -6 3 -20 12 -27 32 -34 43 -16 4 6 11 8 16 5 5 -4 14 -3 20 1 8 4
7 9 -2 15 -11 7 -11 9 1 9 13 0 13 1 0 10 -13 9 -13 11 0 20 13 8 12 10 -2 10
-10 0 -18 -5 -18 -11z m0 -27 c0 -4 -9 -13 -20 -20 -18 -11 -20 -10 -20 8 0
13 7 20 20 20 11 0 20 -3 20 -8z"/>
<path d="M2234 3325 c-4 -8 -1 -22 6 -30 10 -12 10 -15 -1 -15 -8 0 -21 5 -29
10 -13 9 -13 11 0 21 12 8 10 10 -10 5 -14 -3 -33 -6 -42 -6 -14 0 -18 -8 -18
-35 0 -34 1 -34 33 -28 17 3 37 10 43 15 7 5 16 8 20 6 5 -1 19 3 32 10 12 7
27 10 32 7 6 -3 10 5 10 19 0 32 -20 45 -27 17 -6 -23 -11 -25 -33 -11 -10 6
-11 10 -2 10 6 0 12 5 12 10 0 16 -20 12 -26 -5z m-41 -39 c16 -13 16 -14 -9
-20 -14 -4 -29 -5 -32 -1 -3 3 0 5 6 5 7 0 12 5 12 11 0 5 -4 7 -10 4 -5 -3
-10 -1 -10 4 0 15 21 13 43 -3z"/>
<path d="M1673 3303 c-7 -3 -13 -16 -13 -30 0 -22 -2 -24 -15 -13 -13 11 -13
15 -3 22 8 5 2 7 -17 4 -16 -2 -35 -5 -42 -5 -6 -1 -11 -15 -9 -33 1 -24 5
-32 16 -29 8 2 22 4 30 5 9 1 21 5 28 10 6 4 16 5 21 1 5 -3 12 -1 16 5 3 5 1
10 -6 10 -8 0 -8 4 1 15 10 12 10 15 -1 15 -11 0 -11 2 1 10 16 10 11 20 -7
13z m-43 -48 c8 -9 8 -15 2 -15 -6 0 -19 -3 -29 -7 -15 -6 -16 -4 -5 9 10 13
10 17 0 21 -9 4 -8 6 3 6 9 1 22 -6 29 -14z"/>
<path d="M1703 3280 c0 -22 3 -27 13 -19 8 7 13 6 16 -3 3 -8 6 -9 11 -1 6 9
-23 53 -35 53 -3 0 -5 -13 -5 -30z"/>
<path d="M2110 3283 c0 -10 5 -25 10 -33 7 -11 10 -7 10 18 0 17 -4 32 -10 32
-5 0 -10 -8 -10 -17z"/>
<path d="M2076 3268 c-9 -34 -8 -37 14 -31 23 6 24 12 6 36 -13 16 -14 16 -20
-5z"/>
<path d="M2011 3243 c1 -21 3 -30 6 -20 3 13 8 15 17 8 10 -8 13 -4 14 19 0
23 -4 30 -19 30 -16 0 -19 -7 -18 -37z"/>
<path d="M1508 3263 c-25 -4 -28 -9 -28 -41 0 -33 1 -35 14 -16 8 10 10 21 5
22 -5 2 -9 8 -9 14 0 17 30 -13 30 -31 1 -13 3 -13 15 3 8 11 15 14 15 8 0 -7
4 -12 8 -12 5 0 7 14 4 30 -2 17 -9 29 -16 29 -6 -1 -23 -4 -38 -6z"/>
<path d="M1983 3239 c-10 -30 -11 -31 -12 -9 -1 21 -6 26 -28 25 -14 0 -28 -5
-30 -11 -2 -6 -17 -10 -32 -8 -28 3 -29 3 -18 -26 l11 -30 12 28 c9 19 13 22
13 9 1 -26 31 -34 47 -12 8 10 14 13 14 7 0 -23 30 -12 36 13 10 39 -1 52 -13
14z m-43 -13 c0 -8 -4 -17 -9 -21 -12 -7 -24 12 -16 25 9 15 25 12 25 -4z"/>
<path d="M1410 3210 c0 -35 23 -41 40 -10 13 25 5 40 -21 40 -14 0 -19 -7 -19
-30z m26 -17 c-11 -11 -19 6 -11 24 8 17 8 17 12 0 3 -10 2 -21 -1 -24z"/>
<path d="M1360 3205 c-1 -28 -2 -29 -10 -7 -12 30 -18 28 -29 -10 l-9 -33 -1
28 c-1 36 -32 34 -42 -3 -7 -25 -7 -25 -8 -2 -2 39 -35 24 -39 -17 -3 -32 -2
-33 25 -26 15 3 30 11 34 16 3 5 13 7 21 4 9 -4 19 -2 22 3 3 6 15 8 26 5 14
-4 20 0 20 12 0 14 3 15 15 5 13 -11 15 -8 14 21 -1 19 -3 26 -6 16 -5 -18 -5
-18 -19 0 -12 17 -13 16 -14 -12z m-60 -15 c0 -5 -5 -10 -11 -10 -5 0 -7 5 -4
10 3 6 8 10 11 10 2 0 4 -4 4 -10z m-50 -40 c0 -5 -2 -10 -4 -10 -3 0 -8 5
-11 10 -3 6 -1 10 4 10 6 0 11 -4 11 -10z"/>
<path d="M1780 3221 c-19 -5 -26 -14 -28 -39 -3 -27 0 -32 17 -32 25 0 28 20
4 21 -10 0 -13 3 -6 5 7 3 9 12 6 20 -3 9 2 14 15 14 15 0 22 -8 24 -27 3 -25
4 -23 9 10 5 39 3 40 -41 28z"/>
<path d="M1711 3173 c-1 -23 3 -33 14 -33 8 0 15 5 15 10 0 6 -4 10 -9 10 -5
0 -12 10 -14 23 -3 16 -5 13 -6 -10z"/>
<path d="M1640 3154 c0 -41 16 -38 22 6 3 20 0 30 -9 30 -8 0 -13 -13 -13 -36z"/>
<path d="M1153 3173 c-7 -2 -13 -16 -13 -29 0 -33 -18 -30 -23 4 -3 22 -4 20
-6 -10 -1 -28 3 -38 14 -38 8 0 15 5 15 10 0 6 7 10 15 10 8 0 15 6 15 13 0 8
4 7 10 -3 8 -12 10 -11 10 8 0 12 0 25 1 30 0 9 -22 12 -38 5z"/>
<path d="M1592 3168 c-15 -15 -16 -45 -1 -54 6 -3 18 1 27 11 14 14 14 16 2
13 -15 -3 -20 3 -20 23 0 5 4 8 9 4 5 -3 12 -1 16 5 9 14 -18 13 -33 -2z"/>
<path d="M1060 3141 c-12 -23 -3 -51 16 -51 7 0 16 11 20 24 10 43 -16 63 -36
27z m30 -16 c0 -8 -4 -15 -10 -15 -5 0 -10 7 -10 15 0 8 5 15 10 15 6 0 10 -7
10 -15z"/>
<path d="M1496 3148 c-9 -30 -14 -58 -10 -58 15 0 46 41 41 54 -8 19 -26 21
-31 4z"/>
<path d="M1541 3130 c-6 -18 -6 -30 0 -30 5 0 9 4 9 10 0 5 6 7 14 4 10 -4 12
2 9 20 -7 34 -19 33 -32 -4z"/>
<path d="M1040 3141 c0 -8 -7 -11 -15 -7 -17 6 -18 1 -5 -29 7 -18 9 -18 19 9
6 16 9 31 6 34 -3 3 -5 0 -5 -7z"/>
<path d="M1463 3130 c-9 -19 -12 -20 -12 -7 -1 28 -21 19 -22 -10 l-1 -28 -8
25 c-8 24 -8 23 -9 -7 -1 -25 2 -31 14 -27 8 4 15 11 15 18 0 7 3 6 9 -2 12
-19 33 10 29 40 l-3 23 -12 -25z"/>
<path d="M940 3121 c-22 -5 -25 -10 -19 -36 l7 -30 1 28 c1 30 21 38 21 8 0
-25 12 -32 30 -20 12 7 12 9 -4 9 -15 0 -16 3 -6 15 7 8 9 15 4 15 -5 0 -2 5
6 10 13 9 13 10 0 9 -8 -1 -26 -4 -40 -8z"/>
<path d="M1323 3112 c-7 -4 -9 -19 -5 -37 l6 -30 7 35 c8 39 8 42 -8 32z"/>
<path d="M1355 3110 c-4 -6 -1 -17 5 -25 10 -11 10 -15 1 -15 -7 0 -9 -5 -5
-11 4 -7 12 -6 23 6 15 15 15 17 -4 27 -19 11 -19 11 0 19 16 6 17 8 3 8 -9 1
-20 -4 -23 -9z"/>
<path d="M882 3092 c4 -12 3 -20 -2 -17 -4 3 -11 -2 -14 -11 -9 -24 -7 -28 7
-15 8 6 17 8 20 4 4 -3 7 5 7 20 0 14 -5 29 -12 33 -8 5 -9 0 -6 -14z"/>
<path d="M849 3084 c0 -10 -3 -13 -6 -6 -2 6 -16 12 -29 12 -19 0 -26 -6 -30
-30 -8 -36 -24 -40 -24 -6 0 22 -3 23 -27 17 -28 -7 -39 -30 -29 -56 3 -9 12
-12 21 -8 9 3 13 9 8 12 -14 10 -12 41 3 41 8 0 14 -10 14 -21 0 -17 4 -20 23
-15 12 3 29 6 37 6 9 0 11 3 5 8 -15 11 -15 42 1 42 8 0 14 -9 14 -20 0 -11 4
-20 9 -20 10 0 25 50 16 58 -3 3 -5 -3 -6 -14z"/>
<path d="M1255 3093 c-23 -6 -35 -21 -35 -45 0 -20 44 -25 70 -8 12 8 12 10 1
10 -11 0 -11 3 -1 15 10 12 10 15 -1 15 -11 0 -11 2 1 10 13 9 13 10 0 9 -8
-1 -24 -4 -35 -6z m11 -30 c-4 -24 -22 -27 -22 -3 0 11 6 20 12 20 7 0 11 -8
10 -17z"/>
<path d="M1200 3065 c0 -8 -4 -15 -10 -15 -5 0 -10 5 -10 10 0 6 -4 10 -10 10
-5 0 -10 -13 -10 -29 0 -25 3 -28 25 -23 20 3 25 10 25 33 0 16 -2 29 -5 29
-3 0 -5 -7 -5 -15z"/>
<path d="M1100 3035 c-1 -28 -2 -29 -10 -7 -10 23 -25 29 -35 12 -4 -6 -10 -8
-15 -5 -5 3 -20 3 -33 0 -19 -5 -23 -11 -19 -36 6 -39 22 -37 23 4 2 30 2 30
6 5 4 -28 23 -40 23 -15 0 9 2 9 9 -1 7 -12 12 -12 32 0 13 7 27 18 31 23 5 6
8 5 8 -3 0 -7 5 -10 10 -7 13 8 13 55 -1 55 -5 0 -7 -4 -4 -10 3 -5 2 -10 -4
-10 -5 0 -12 6 -14 13 -3 6 -6 -1 -7 -18z m-28 -27 c-9 -9 -12 -7 -12 12 0 19
3 21 12 12 9 -9 9 -15 0 -24z"/>
<path d="M946 2998 c-8 -33 -8 -34 14 -34 11 0 20 3 20 6 -1 17 -14 50 -20 50
-4 0 -10 -10 -14 -22z"/>
<path d="M920 3000 c0 -5 -7 -7 -15 -4 -10 4 -15 0 -16 -12 0 -18 -1 -17 -9 1
-7 17 -9 15 -9 -12 -1 -25 3 -31 14 -27 8 4 15 11 15 16 0 6 6 5 15 -2 13 -11
15 -8 15 19 0 17 -2 31 -5 31 -3 0 -5 -4 -5 -10z"/>
<path d="M832 2988 c-7 -7 -12 -21 -13 -32 0 -19 -2 -18 -11 4 l-10 25 -13
-30 -13 -30 -5 30 c-4 28 -5 29 -12 7 -7 -21 -8 -21 -21 -5 -12 16 -13 15 -14
-14 0 -32 16 -41 32 -18 5 6 8 5 8 -3 0 -10 5 -10 21 -2 11 6 32 12 47 13 18
2 28 9 29 22 3 19 3 19 -5 1 -7 -15 -10 -17 -17 -6 -5 8 -2 17 8 25 10 7 17
15 17 19 0 10 -15 7 -28 -6z"/>
<path d="M702 2930 c0 -19 2 -27 5 -17 2 9 2 25 0 35 -3 9 -5 1 -5 -18z"/>
<path d="M7670 2910 c-20 -12 -5 -24 16 -12 9 5 12 12 7 15 -5 3 -15 2 -23 -3z"/>
<path d="M688 2133 c7 -3 16 -2 19 1 4 3 -2 6 -13 5 -11 0 -14 -3 -6 -6z"/>
<path d="M465 2080 c4 -6 11 -8 16 -5 14 9 11 15 -7 15 -8 0 -12 -5 -9 -10z"/>
<path d="M48 1892 c4 -10 7 -12 10 -4 2 7 9 9 15 5 7 -3 8 -2 4 2 -14 16 -36
14 -29 -3z"/>
</g>
</svg>
