<?xml version="1.0" standalone="no"?>
<!DOCTYPE svg PUBLIC "-//W3C//DTD SVG 20010904//EN"
 "http://www.w3.org/TR/2001/REC-SVG-20010904/DTD/svg10.dtd">
<svg version="1.0" xmlns="http://www.w3.org/2000/svg"
 width="1848.000000pt" height="970.000000pt" viewBox="0 0 1848.000000 970.000000"
 preserveAspectRatio="xMidYMid meet">

<g transform="translate(0.000000,970.000000) scale(0.100000,-0.100000)"
fill="#000000" stroke="none">
<path d="M14710 8620 l0 -1079 83 -3 82 -3 3 -82 3 -83 1524 0 1525 0 0 1165
c0 1158 0 1165 -20 1165 -20 0 -20 -7 -20 -1145 l0 -1145 -1485 0 -1485 0 0
65 0 65 1425 0 1425 0 0 1080 0 1080 -25 0 -26 0 3 -1060 3 -1060 -1487 0
-1488 0 0 1060 c0 1053 0 1060 -20 1060 -20 0 -20 -7 -20 -1080z"/>
<path d="M16416 9234 c-42 -15 -100 -55 -128 -89 -29 -33 -58 -122 -58 -175
l0 -50 -40 0 c-65 0 -140 20 -227 60 -101 47 -150 81 -232 159 -34 34 -64 61
-66 61 -1 0 -10 -25 -20 -56 -32 -101 -5 -194 78 -275 l42 -41 -45 7 c-25 4
-56 14 -69 22 l-24 15 7 -42 c15 -92 84 -183 160 -211 20 -7 36 -17 36 -21 0
-8 -43 -12 -87 -8 -31 2 -29 -8 12 -65 36 -52 102 -102 144 -111 65 -14 67
-18 29 -48 -51 -38 -131 -64 -245 -78 l-98 -12 60 -27 c122 -56 208 -74 355
-74 111 0 149 4 214 23 331 95 548 362 563 695 3 59 10 107 15 107 18 0 68 44
94 83 22 34 23 39 8 32 -19 -7 -115 -35 -124 -35 -2 0 14 19 37 43 22 23 48
56 57 74 l16 32 -64 -29 c-87 -38 -96 -39 -137 -8 -72 56 -180 73 -263 42z"/>
<path d="M1119 8666 c-141 -38 -220 -136 -220 -276 0 -101 15 -145 70 -200 53
-53 107 -77 249 -110 112 -26 142 -47 142 -99 0 -20 -7 -46 -15 -58 -32 -45
-139 -49 -186 -7 -10 9 -23 33 -29 53 l-10 36 -117 -12 c-65 -6 -121 -12 -126
-12 -10 -1 1 -45 25 -103 24 -57 91 -122 154 -148 105 -45 255 -48 363 -7 67
25 141 92 172 155 27 56 32 174 10 235 -31 89 -119 148 -276 186 -129 31 -162
47 -175 87 -14 40 7 88 42 98 76 20 141 -8 153 -65 6 -25 11 -30 28 -25 12 2
66 8 120 12 96 7 97 7 97 33 0 44 -45 125 -91 164 -80 69 -253 98 -380 63z"/>
<path d="M2035 8666 c-112 -28 -218 -103 -268 -189 -48 -81 -62 -150 -59 -296
2 -187 26 -264 111 -355 100 -106 265 -153 437 -123 170 31 281 122 336 276
25 72 35 251 19 347 -30 181 -149 304 -329 343 -68 14 -183 13 -247 -3z m237
-229 c50 -38 69 -92 75 -212 10 -177 -29 -275 -121 -310 -84 -32 -184 4 -222
82 -27 54 -33 296 -9 357 34 87 81 118 175 113 53 -2 72 -7 102 -30z"/>
<path d="M3021 8665 c-113 -32 -213 -111 -262 -207 -46 -89 -64 -295 -38 -433
34 -183 158 -298 352 -325 201 -28 382 56 451 210 15 33 28 72 29 87 2 27 2
27 -98 40 -150 18 -152 18 -158 -16 -9 -44 -63 -99 -108 -111 -91 -25 -165 22
-194 125 -13 45 -16 86 -13 179 3 104 7 129 28 171 46 92 149 119 221 58 16
-14 34 -43 41 -66 6 -23 12 -43 13 -44 2 -4 256 25 261 29 2 3 0 28 -6 56 -22
99 -107 193 -212 234 -71 28 -231 34 -307 13z"/>
<path d="M3680 8663 c0 -5 0 -219 -1 -478 l0 -470 130 -3 131 -3 0 481 0 480
-130 0 c-71 0 -130 -3 -130 -7z"/>
<path d="M4301 8638 c-5 -18 -62 -222 -126 -453 -64 -231 -120 -432 -125 -447
l-9 -28 123 0 123 0 6 38 c4 20 14 61 22 90 l16 52 138 0 139 0 22 -90 22 -90
134 0 c152 0 144 -6 115 91 -11 35 -40 141 -66 234 -26 94 -71 256 -100 360
-29 105 -58 209 -64 233 l-12 42 -174 0 -173 0 -11 -32z m219 -395 c22 -89 40
-165 40 -168 0 -3 -40 -5 -90 -5 -65 0 -90 3 -90 13 0 6 19 90 42 185 29 116
45 167 50 155 4 -10 26 -91 48 -180z"/>
<path d="M5027 8664 c-4 -4 -7 -220 -7 -481 l0 -473 300 0 300 0 0 100 0 100
-165 0 -165 0 -2 378 -3 377 -126 3 c-69 1 -128 -1 -132 -4z"/>
<path d="M5976 8663 c-3 -4 -6 -220 -6 -480 l1 -473 117 0 117 0 -1 285 c-1
157 2 285 5 285 4 0 21 -42 38 -92 17 -51 61 -180 98 -285 l68 -193 42 0 42 0
104 293 104 292 3 -292 2 -293 130 0 130 0 0 480 0 480 -167 -2 -168 -3 -81
-239 c-44 -132 -83 -236 -86 -230 -3 5 -40 114 -82 242 l-78 232 -162 0 c-90
0 -166 -3 -170 -7z"/>
<path d="M7137 8663 c-4 -3 -7 -219 -7 -480 l0 -473 320 0 320 0 0 100 0 100
-185 0 c-141 0 -185 3 -186 13 -2 33 3 172 6 175 2 2 63 4 137 5 l133 2 3 92
3 92 -143 3 -143 3 0 85 0 85 178 3 177 2 0 100 0 100 -303 0 c-167 0 -307 -3
-310 -7z"/>
<path d="M7897 8663 c-4 -3 -7 -219 -7 -480 l0 -473 223 0 c298 0 393 21 486
106 95 85 125 175 125 374 1 124 -3 156 -22 219 -21 65 -32 83 -85 136 -68 68
-128 97 -239 115 -69 11 -471 14 -481 3z m472 -222 c32 -17 48 -34 64 -69 19
-42 21 -63 19 -187 -1 -124 -4 -144 -25 -184 -34 -68 -73 -86 -180 -86 l-88 0
0 263 c0 144 1 269 1 278 0 26 151 14 209 -15z"/>
<path d="M8860 8190 l0 -480 130 0 130 0 0 480 0 480 -130 0 -130 0 0 -480z"/>
<path d="M9490 8648 c-9 -23 -260 -920 -260 -932 0 -3 53 -6 119 -6 l119 0 22
90 22 91 141 -3 141 -3 21 -85 21 -85 137 -3 c75 -1 137 -1 137 0 0 2 -60 217
-133 478 l-132 475 -173 3 c-171 2 -172 2 -182 -20z m250 -560 c0 -16 -11 -18
-90 -18 -49 0 -90 2 -90 6 0 6 65 267 82 329 11 40 11 39 54 -130 24 -93 44
-178 44 -187z"/>
<path d="M10920 6830 l0 -1199 83 -3 82 -3 3 -82 3 -83 1524 0 1525 0 0 1200
0 1200 -80 0 -80 0 -1 43 c-1 23 -2 60 -3 82 l-1 40 -1528 3 -1527 2 0 -1200z
m3011 0 l-1 -1155 -1485 -3 -1485 -2 0 1160 0 1160 1486 -2 1486 -3 -1 -1155z
m169 -170 l0 -1160 -1485 0 -1485 0 0 65 0 65 1423 0 1422 0 -3 1052 c-2 579
0 1072 3 1096 l6 42 60 0 59 0 0 -1160z"/>
<path d="M12049 7340 c-65 -5 -136 -14 -160 -20 -55 -15 -114 -73 -128 -125
-40 -152 -40 -569 0 -719 14 -51 73 -111 124 -125 118 -33 877 -40 1068 -11
182 29 212 97 212 495 0 268 -11 353 -56 414 -36 50 -70 68 -156 82 -88 13
-752 20 -904 9z m443 -396 c101 -59 184 -108 185 -108 2 -2 -355 -209 -368
-214 -5 -2 -9 92 -9 212 0 119 2 216 4 216 3 0 87 -48 188 -106z"/>
<path d="M5110 7364 c-155 -42 -272 -169 -301 -329 -18 -94 -6 -307 20 -376
47 -123 131 -203 256 -242 144 -44 349 -19 448 57 51 39 104 122 122 191 17
67 21 261 5 267 -5 2 -98 2 -205 0 l-195 -3 0 -89 0 -90 80 0 c44 0 80 -4 80
-9 0 -19 -24 -77 -39 -95 -42 -48 -140 -63 -210 -32 -73 33 -100 107 -101 272
0 168 41 256 136 284 76 23 164 -22 179 -92 8 -32 12 -33 136 -18 148 19 142
14 109 104 -24 63 -88 134 -148 165 -96 49 -262 65 -372 35z"/>
<path d="M920 6890 l0 -480 115 0 115 0 2 293 3 292 74 -210 c40 -115 87 -247
103 -292 l30 -83 41 0 42 0 98 278 c54 153 103 285 108 293 5 8 9 -102 9 -278
l0 -293 129 0 129 0 -1 478 -2 477 -165 3 -165 2 -80 -235 c-44 -129 -83 -235
-87 -235 -3 0 -42 106 -85 235 l-78 235 -167 0 -168 0 0 -480z"/>
<path d="M2280 7365 c0 -3 -58 -215 -130 -472 -71 -256 -130 -470 -130 -475 0
-4 53 -8 119 -8 l119 0 22 90 22 90 139 0 138 0 10 -37 c6 -20 16 -60 22 -90
l12 -53 138 0 137 0 -24 88 c-13 48 -73 263 -133 477 l-108 390 -177 3 c-97 1
-176 0 -176 -3z m208 -407 c23 -95 42 -176 42 -180 0 -5 -40 -8 -90 -8 -49 0
-90 3 -90 8 0 19 85 352 90 352 3 0 25 -78 48 -172z"/>
<path d="M3000 6890 l0 -480 115 0 115 0 2 296 3 295 150 -295 150 -296 128 0
127 0 0 480 0 480 -115 0 -115 0 -2 -262 -3 -263 -133 263 -132 262 -145 0
-145 0 0 -480z"/>
<path d="M4157 7363 c-3 -5 -15 -44 -27 -88 -12 -44 -41 -150 -65 -235 -24
-85 -71 -254 -105 -375 -33 -121 -63 -228 -66 -237 -5 -16 5 -18 115 -18 l120
0 10 37 c6 20 16 60 22 90 l12 53 142 0 142 0 12 -53 c6 -30 16 -70 22 -90
l10 -37 134 0 c74 0 135 2 135 4 0 5 -29 110 -171 619 l-94 337 -172 0 c-94 0
-174 -3 -176 -7z m203 -393 c22 -91 43 -173 46 -182 5 -16 -4 -18 -91 -18 -87
0 -96 2 -91 18 8 26 86 344 86 350 0 22 14 -26 50 -168z"/>
<path d="M5800 6890 l0 -480 315 0 315 0 0 100 0 100 -185 0 -186 0 3 96 3 96
120 -1 c67 -1 129 1 138 5 14 5 17 20 17 95 l0 89 -140 0 -140 0 0 90 0 90
175 0 175 0 0 100 0 100 -305 0 -305 0 0 -480z"/>
<path d="M6560 6890 l0 -480 115 0 115 0 2 284 3 285 100 -285 100 -284 41 0
42 0 42 118 c22 64 69 195 103 291 l62 174 3 -292 2 -291 130 0 130 0 0 480 0
480 -167 -2 -167 -3 -81 -239 c-45 -131 -84 -235 -87 -230 -3 5 -40 114 -82
242 l-78 232 -164 0 -164 0 0 -480z"/>
<path d="M7720 6890 l0 -480 315 0 315 0 0 100 0 100 -185 0 -185 0 0 98 0 97
116 -3 c171 -5 164 -10 164 98 l0 90 -140 0 -140 0 0 90 0 90 175 0 175 0 0
100 0 100 -305 0 -305 0 0 -480z"/>
<path d="M8479 7363 c-1 -5 0 -219 0 -478 l2 -470 114 -3 115 -3 2 293 3 293
82 -160 c45 -88 112 -220 150 -292 l68 -133 128 0 127 0 0 480 0 480 -115 0
-115 0 0 -261 c0 -143 -3 -258 -7 -255 -5 2 -66 119 -138 260 l-130 256 -142
0 c-79 0 -143 -3 -144 -7z"/>
<path d="M9380 7270 l0 -99 113 -3 112 -3 3 -377 2 -378 130 0 130 0 0 380 0
380 115 0 115 0 0 100 0 100 -360 0 -360 0 0 -100z"/>
<path d="M14710 5890 l0 -1199 83 -3 82 -3 3 -82 3 -83 1524 0 1525 0 0 1200
0 1200 -80 0 c-57 0 -80 4 -81 13 0 6 -1 44 -2 82 l-2 70 -1527 3 -1528 2 0
-1200z m3010 1143 c0 -10 1 -532 3 -1160 l2 -1143 -1487 0 -1488 0 0 1160 0
1160 1485 0 c1408 0 1485 -1 1485 -17z m170 -1313 l0 -1160 -1485 0 -1485 0 0
65 0 65 1420 2 1421 3 -1 1093 0 1092 65 0 65 0 0 -1160z"/>
<path d="M16297 6556 c-131 -47 -187 -157 -187 -367 l0 -119 -110 0 -110 0 0
-125 0 -125 110 0 110 0 0 -300 0 -300 130 0 130 0 0 300 0 300 95 0 c90 0 95
1 100 23 8 37 35 201 35 215 0 9 -30 12 -115 12 l-115 0 0 100 c0 69 5 110 15
129 19 38 80 61 160 61 l65 0 0 99 0 98 -67 6 c-106 10 -205 7 -246 -7z"/>
<path d="M10922 3978 l3 -1203 50 3 c27 2 64 1 82 -3 l33 -6 0 -79 0 -80 1525
0 1525 0 0 1200 0 1199 -82 3 -83 3 0 80 0 80 -1528 3 -1527 2 2 -1202z m3008
1120 c2 -217 -1 -2273 -4 -2275 -2 -2 -1937 -4 -2878 -3 l-88 0 0 1160 0 1160
1485 0 1485 0 0 -42z m170 -1288 l0 -1160 -1485 0 -1485 0 0 65 0 65 1418 0
c779 0 1420 0 1425 0 4 0 6 493 5 1095 l-3 1095 63 0 62 0 0 -1160z"/>
<path d="M12440 4168 c0 -394 -2 -426 -19 -465 -22 -47 -77 -88 -133 -98 -68
-13 -149 30 -184 97 -18 35 -18 111 1 147 31 60 115 108 176 99 l29 -5 0 105
0 105 -77 -5 c-143 -9 -254 -85 -316 -216 -29 -60 -32 -77 -32 -157 0 -80 3
-97 31 -155 39 -82 98 -141 182 -182 61 -30 75 -33 162 -33 86 0 101 3 160 31
87 42 140 90 177 161 44 82 53 148 53 385 l0 208 48 -30 c52 -31 146 -60 199
-60 l33 0 0 103 0 103 -39 1 c-112 5 -224 113 -238 232 l-6 51 -103 0 -104 0
0 -422z"/>
<path d="M14710 3035 l0 -1205 83 2 82 1 3 -81 3 -82 1524 0 1525 0 0 1200 0
1200 -80 0 -80 0 -1 38 c-1 20 -2 57 -3 82 l-1 45 -1527 3 -1528 2 0 -1205z
m3011 7 c0 -634 -1 -1155 -3 -1158 -3 -2 -670 -4 -1484 -4 l-1479 0 -3 1160
-2 1160 1485 -2 1484 -3 2 -1153z m169 -172 l0 -1160 -1485 0 -1486 0 3 62 3
62 1416 -1 1416 0 6 146 c3 80 4 571 2 1090 -2 520 -2 948 1 953 3 4 32 8 65
8 l59 0 0 -1160z"/>
<path d="M16103 3700 c-62 -13 -171 -59 -231 -97 -82 -52 -175 -154 -220 -241
-69 -134 -77 -170 -76 -327 0 -132 2 -145 31 -222 53 -139 151 -264 266 -337
91 -58 93 -58 100 26 4 40 26 155 51 256 36 146 43 189 35 215 -24 83 2 195
52 231 34 24 104 21 128 -5 40 -43 39 -58 -23 -285 -18 -65 -11 -98 27 -130
27 -23 38 -26 83 -22 82 7 140 66 176 181 82 263 -34 441 -276 425 -97 -7
-165 -38 -224 -102 -85 -94 -108 -230 -56 -326 22 -41 25 -54 17 -87 -12 -51
-39 -55 -88 -12 -64 57 -80 99 -80 219 0 98 2 109 32 170 80 163 230 251 428
253 110 0 179 -18 261 -71 71 -46 126 -117 155 -199 17 -47 20 -74 16 -148
-11 -212 -110 -362 -267 -409 -93 -28 -166 -16 -224 35 l-34 29 -26 -106 c-15
-58 -40 -132 -56 -164 l-30 -59 38 -8 c20 -4 96 -8 167 -7 116 1 138 4 205 28
210 78 350 224 426 446 27 78 27 301 0 380 -76 224 -222 373 -443 452 -65 23
-267 34 -340 18z"/>
<path d="M7080 3010 l0 -1199 83 -3 82 -3 3 -82 3 -83 1524 0 1525 0 0 1200 0
1199 -82 3 -83 3 1 83 2 82 -1529 0 -1529 0 0 -1200z m3011 1128 c0 -18 1
-540 2 -1160 l2 -1128 -1487 0 -1488 0 0 1160 0 1160 1485 0 1485 0 1 -32z
m169 -1298 l0 -1160 -1485 0 -1485 0 0 65 0 65 1424 0 1425 0 -2 1095 -2 1095
63 0 62 0 0 -1160z"/>
<path d="M8471 3650 c-74 -27 -125 -64 -166 -120 -63 -86 -70 -111 -70 -260
l0 -135 -77 0 c-83 0 -102 -9 -96 -46 2 -19 20 -32 77 -60 40 -20 77 -43 82
-51 19 -35 -40 -148 -113 -213 -38 -35 -129 -85 -154 -85 -23 0 -38 -29 -26
-54 10 -22 47 -36 153 -60 21 -5 28 -14 35 -48 l9 -43 96 4 c105 4 125 -3 234
-75 58 -39 140 -57 214 -47 30 4 78 25 141 62 l94 56 99 0 98 1 18 40 c17 37
23 42 85 58 85 23 110 42 101 77 -5 20 -17 29 -47 39 -23 6 -58 22 -78 35 -49
31 -129 121 -151 170 -34 74 -23 97 61 129 81 30 107 68 70 101 -20 18 -43 18
-126 0 l-32 -7 -4 148 c-4 137 -6 154 -31 205 -32 67 -109 142 -175 172 -69
31 -245 35 -321 7z"/>
<path d="M10920 1165 c0 -1158 0 -1165 20 -1165 20 0 20 7 20 1145 l0 1145
1486 -2 1486 -3 -2 -1143 -1 -1142 26 0 26 0 -3 1060 -3 1060 63 0 62 0 0
-1060 c0 -1053 0 -1060 20 -1060 20 0 20 7 20 1080 l0 1080 -80 0 -80 0 -1 53
c-1 28 -2 66 -3 82 l-1 30 -1527 3 -1528 2 0 -1165z"/>
<path d="M12045 1682 c-96 -33 -171 -115 -195 -212 -7 -30 -10 -150 -8 -360 3
-298 4 -318 24 -361 28 -60 87 -119 150 -150 49 -24 49 -24 389 -24 327 0 342
1 386 21 60 28 119 87 150 150 24 49 24 49 24 389 0 340 0 340 -24 389 -31 63
-84 116 -147 147 -48 24 -53 24 -374 26 -288 3 -331 1 -375 -15z m724 -135
c77 -51 81 -67 81 -411 0 -285 -1 -302 -21 -344 -13 -26 -38 -54 -62 -70 l-41
-27 -321 0 -321 0 -41 27 c-25 16 -49 44 -62 71 -21 44 -22 55 -19 354 l3 310
28 42 c52 79 66 81 423 78 l311 -2 42 -28z"/>
<path d="M12667 1488 c-9 -7 -19 -25 -22 -40 -10 -39 34 -83 73 -73 34 8 52
31 52 65 0 50 -62 78 -103 48z"/>
<path d="M12272 1409 c-192 -95 -231 -343 -78 -494 67 -65 130 -89 229 -83
120 6 206 63 258 173 98 203 -50 435 -277 435 -59 0 -81 -5 -132 -31z m239
-104 c95 -62 123 -180 67 -277 -33 -55 -108 -98 -172 -98 -106 1 -206 100
-206 204 0 73 70 170 140 193 52 18 127 8 171 -22z"/>
<path d="M7130 695 c0 -688 0 -695 20 -695 20 0 20 7 20 675 l0 675 1485 0
1485 0 0 -675 0 -675 25 0 26 0 -1 588 -1 587 60 3 61 3 0 -591 c0 -583 0
-590 20 -590 20 0 20 7 20 610 l0 610 -80 0 c-57 0 -80 4 -81 13 0 6 -1 44 -2
82 l-2 70 -1527 3 -1528 2 0 -695z"/>
<path d="M14710 695 c0 -688 0 -695 20 -695 20 0 20 7 20 675 l0 675 1486 -2
1485 -3 -1 -673 -1 -672 26 0 26 0 -3 590 -3 590 63 0 62 0 0 -590 c0 -583 0
-590 20 -590 20 0 20 7 20 610 l0 609 -82 3 -82 3 0 80 -1 80 -1527 3 -1528 2
0 -695z"/>
<path d="M16125 837 c-74 -25 -122 -56 -173 -111 -73 -80 -88 -130 -85 -288 2
-145 3 -144 -78 -127 -65 14 -102 -1 -97 -40 2 -21 16 -33 75 -61 96 -46 105
-72 57 -159 -13 -24 -24 -45 -24 -47 0 -2 203 -4 450 -4 l450 0 -31 55 c-47
83 -40 102 49 145 81 39 99 58 82 90 -14 27 -54 35 -100 21 -72 -21 -70 -25
-70 112 0 219 -55 324 -205 394 -51 23 -75 28 -160 30 -63 2 -115 -2 -140 -10z"/>
<path d="M8833 714 c-54 -20 -128 -85 -155 -138 -13 -24 -23 -68 -26 -108 l-5
-68 -38 0 c-140 0 -327 92 -467 229 -28 28 -54 51 -57 51 -9 0 -35 -105 -35
-144 0 -53 38 -132 84 -175 20 -19 36 -39 36 -44 0 -12 -54 -1 -92 18 l-30 14
7 -42 c16 -93 83 -180 159 -208 20 -7 36 -16 36 -20 0 -10 -52 -18 -82 -12
-33 6 -34 1 -11 -38 l17 -29 457 0 456 0 41 88 c46 100 72 211 72 310 0 68 1
70 35 93 43 29 110 117 79 105 -10 -5 -43 -15 -73 -22 l-54 -13 40 42 c41 42
80 107 65 107 -4 0 -12 -4 -17 -9 -6 -5 -38 -21 -73 -35 l-63 -26 -37 29 c-73
59 -179 76 -269 45z"/>
</g>
</svg>
